<svg xmlns="http://www.w3.org/2000/svg" width="400" height="400"><title>Layer 1</title><g id="svg_1"><g id="svg_9"><path id="path1" fill="#b1b5b4" d="M265.51 119.39c-2.75.3-5.12.67-5.25.81-.14.16.56.17 1.57.03a122.59 123.46 0 0 1 5.25-.52c1.89-.14 4.61-.39 6.07-.56l2.62-.3-2.62-.02c-1.46 0-4.89.23-7.64.55m20.16-.23c2.56.2 6.18.56 8.05.8 1.88.22 3.48.34 3.55.27.4-.42-5.57-1.13-10.6-1.27l-5.66-.16zm15.41 1.81c.43.44 7.77 2.3 8.63 2.17.45-.06-.64-.52-2.42-1-3.71-1-6.58-1.55-6.21-1.17m-51.04 1.38c-1.26.38-2.42.8-2.58.97-.29.28 5.52-1.27 5.83-1.56.34-.31-1.04-.06-3.26.59m63.52 2.16c.56.27 2.47 1.11 4.24 1.88 6.24 2.7 8.63 4 12.66 6.81 9.54 6.69 15.02 11.77 14.17 13.14-.31.5-.76.83-.99.73s-.45.08-.45.39c0 1.19-2.7 3.77-3.72 3.53-.67-.14-.88-.06-.68.27.17.25.47.36.67.23s.26.06.12.41c-.19.5-.37.55-.79.19-.29-.25-.78-.36-1.06-.23-.33.13-.26.22.19.23.98.05.88.84-.11.84-.43 0-.81-.17-.81-.41s-.31-.39-.7-.39c-.59.02-.54.16.26.83.95.8.95.84.25 1.52-.4.38-.64.5-.5.27.33-.61-.34-1.63-.7-1.05-.16.25-.12.45.06.45 1.43 0-1.96 5.17-3.55 5.44-1.37.23-2.36 1.22-1.96 1.97.28.53.25.73-.12.75-.29.02-1.07.75-1.74 1.63-1.91 2.53-5.88 6.5-6.49 6.5-.33 0-.47.25-.33.59.26.72-.54 1.63-1.78 2.02-1.33.44-1.89-.11-1.06-1.02.37-.44.5-.78.26-.78s-.53.3-.67.66c-.29.78-1.46.05-1.46-.91 0-.31-.34-.56-.76-.56-.47 0-.74-.27-.71-.67.05-.41-.26-.7-.78-.73-.47-.05-2.13-1.11-3.71-2.38-3.45-2.77-5.94-4.28-9.19-5.56-3.43-1.34-5.15-2.06-5.94-2.47-3.83-2.03-22.16-3.27-24.81-1.67-.61.36-.39.41 1.04.16 14.48-2.39 31.05 2.89 43.05 13.72 4.16 3.77 4.72 3.86 7.03 1.33a10184.68 10256.77 0 0 1 14.39-15.75c11.24-12.27 10.27-10.31 6.77-13.77-7.53-7.41-18.13-14.35-26.57-17.38-2.95-1.08-4.48-1.45-3.03-.75m-72.44 1.03c-2.67 1.2-2.72 1.28-1.21 2.61l1.1.98-.96-1.11-.98-1.11 1.18-.44c2-.75 4.42-2.03 3.8-2-.34.02-1.66.5-2.93 1.06m.37 5.05c.45.77 1.33 2.27 1.94 3.34.62 1.08 1.19 1.86 1.3 1.77.25-.25-2.98-5.83-3.6-6.22-.26-.16-.11.34.36 1.11m3.49 6.17c.11.28.85 1.97 1.63 3.77 2.56 5.88 4.58 16.38 4.22 22.04l-.16 2.48.93-.61c1.02-.67 1.21-1 .37-.69-.43.17-.59-.81-.78-4.78-.34-7.11-2.45-15.77-5.2-21.19-.7-1.39-1.52-2.2-1.02-1.02m95.11 12.6c-.14.5-.14 1-.03 1.11.26.27.96-.81.96-1.5.02-.86-.68-.56-.93.39m-73.62 8.25c-8.64 2.69-12.76 4.39-12.17 5 .12.11.64-.06 1.13-.39 1.4-.91 8.66-3.56 11.42-4.19 1.52-.33 1.99-.53 1.23-.55-.67 0-1.4.05-1.61.13m-39.39 41.46-1.4 1.69 1.71-1.61c.93-.89 1.69-1.66 1.69-1.73 0-.45-.81.2-2 1.66m-156.01 7.39c-1.44 1.45-2.44 2.63-2.22 2.59.39-.05 5.34-5.25 5-5.25-.09 0-1.35 1.2-2.78 2.66m142.15 3.69c-.61.33-1.12.69-1.12.8 0 .39.64.14 1.61-.63 1.21-.95 1.02-1-.5-.17m14.45 4.86c-7.09 6.19-25.31 13.94-35.41 15.1-2.89.33-2.86.13-.93 6.55 2.62 8.75 4.02 12.25 7.09 17.74 13.13 23.5 33.94 37.62 62.2 42.18 32.76 5.3 60.54-2.48 83.04-23.27l2.02-1.88-8.09-8.27c-4.45-4.55-10.44-10.81-13.33-13.92l-5.26-5.64-2.79 2.73c-7.88 7.67-16.85 12.28-27.06 13.91-30.38 4.84-54.7-13-58.89-43.27-.54-3.88-.45-3.8-2.58-1.95m1.82 1.34c0 1.3 1.12 7.31 1.46 7.88.12.2.33.97.43 1.69.37 2.45 4.11 10.85 6.24 14.03.64.95 1.16 1.86 1.16 2.02 0 .14.57.86 1.29 1.61l1.3 1.34-.99.03c-.87.03-.82.08.29.41.71.22 1.41.56 1.54.78.14.22-.02.28-.37.16-.48-.19-.64.03-.64.89 0 1.06.05 1.09.56.38.53-.73.57-.73 1.02.14.26.48.33.86.16.83-1.57-.27-2.23.16-2.96 1.83-.43.97-1.06 2-1.4 2.28-.33.28-.61.95-.61 1.48 0 1.91-3.13 1.38-3.35-.56-.11-.86-.14-.64-.08.48.11 2.28-1.33 4.3-3.06 4.3-.74 0-.81.09-.39.61.29.34 1.18.61 2.08.61 1.12 0 1.57-.17 1.57-.61 0-.33.17-.61.4-.61s.4.73.4 1.63-.19 1.63-.4 1.63-.4.27-.4.59c0 .36-.59.7-1.47.88-.95.17-1.54.55-1.66 1.03-.11.42-.51.77-.88.77-.68 0-2.45 2.03-2.45 2.83a.42.42 0 0 1-.42.42c-.23 0-1.18.73-2.11 1.63s-1.82 1.63-2 1.63-.33.7-.33 1.58c0 .89-.43 2.39-1.02 3.52-1.06 1.98-.84 3.52.33 2.25.42-.44.36-.48-.31-.25-.62.22-.7.17-.33-.2.76-.77 1.99-.13 1.32.67-.56.69 0 1.38 1.13 1.39.28 0 .51.19.51.39 0 .22-.28.3-.62.17-.45-.19-.54-.06-.34.45.22.56-.05.5-1.3-.31-.87-.58-1.54-1.25-1.47-1.5.06-.27-.06-.36-.29-.22-.54.33-5.31-3.88-4.98-4.41.14-.22.03-.27-.22-.11-.26.16-.47.06-.47-.2s-.12-.38-.26-.23c-.53.53-8.32-8.05-11.51-12.67-2.33-3.38-3.34-5.16-6.25-11.06-2.45-4.94-2.53-5.13-3.6-8.35a66.73 67.2 0 0 0-1.02-2.84c-.56-1.36-1.92-6.03-2.11-7.24-.14-.89-.02-1.16.67-1.3.47-.11 2.41-.48 4.3-.84 3.09-.59 7.76-1.83 9.9-2.64 3.93-1.47 4.7-1.81 11.11-4.84 3.65-1.72 5.11-2.58 8.95-5.28 3.6-2.53 3.97-2.63 3.97-.92m-48.9 4.19c-4.45.52-4.76.77-.62.5 3.15-.2 7.05-.95 4.45-.88-.43.02-2.17.19-3.83.38m-9.99 1.06c.82.09 2.19.09 3.03 0s.16-.16-1.52-.16-2.34.08-1.51.16m-12.34.41c1.4.09 3.66.09 5.06 0s.25-.14-2.53-.14-3.91.06-2.53.14m-11.37.58c-3.31.31-5.34.8-3.04.72 2.93-.09 11.17-1.08 9.06-1.08-1.33 0-4.03.16-6.02.36m-7.01 1.03c.39.11 1.02.11 1.41 0 .4-.09.08-.19-.7-.19s-1.1.09-.71.19m-8.99 1.36c-.81.25-.84.31-.2.31.45 0 1.26-.14 1.82-.31.81-.27.84-.33.2-.33-.45 0-1.26.14-1.82.33m-5.18 1.08c-1.41.34-2.47.7-2.34.83.22.23 5.91-1.06 5.91-1.34 0-.25-.82-.14-3.57.52m-10.99 3.33c-2.58.95-6.64 2.94-4.84 2.36 1.16-.36 8.29-3.19 8.44-3.36.39-.36-.73-.05-3.6 1m-57.11 1.19c-.09.16-.29.84-.43 1.52a45 45.32 0 0 1-.51 2.03c-.12.45-.11.7.05.56.29-.3 1.44-4.42 1.23-4.42-.08 0-.22.14-.33.31m102.61 1.25c-.17.28-.65.39-1.07.27-3.88-1.25-37.96 4.34-37.96 6.22 0 .3 1.35 3.16 3 6.38 15.94 31.04 45.39 51.6 76.41 53.35 2 .13 4.53.3 5.63.39l1.99.19-1.38-1.45c-.76-.78-3.03-2.66-5.03-4.14-20.22-15.03-34.44-35.15-39.98-56.64-.74-2.92-1.43-4.84-1.61-4.56m.47 3.16c.29 1.09.7 2.73.9 3.63s.47 2 .61 2.44c.19.61-.02.94-.81 1.3-1.02.47-1.04.45-.82-.81.12-.72.12-1.09 0-.83-.23.52-2.98-.13-3.45-.8-.14-.2-.82-.06-1.51.3s-1.66.66-2.17.66c-.51.02-1.38.28-1.94.59l-1.01.58 1.32.02c1.26.02 1.3.08 1.3 1.64 0 1.55-.06 1.64-1.21 1.64-.85 0-1.21-.2-1.21-.67 0-.53-.11-.56-.61-.16-.33.28-.51.66-.4.83s-.34.89-1.01 1.56c-1.37 1.38-1.49 1.69-.61 1.69.43 0 .61.45.59 1.73-.02 2.31-1.06 3.55-2.98 3.55-1.02 0-1.46.19-1.46.63s.45.61 1.61.61c2.11 0 2.25 1.06.2 1.45-.79.14-1.61.61-1.83 1.03-.23.42-.73.77-1.12.77-.42 0-.9.53-1.21 1.33-.37.98-.59 1.17-.85.75-.51-.83-2.56-.23-2.37.69.09.38.47.67.84.64.87-.08.87.03.02.89-.65.66-.64.67.29.38.85-.28.92-.23.47.31-.31.39-.37.73-.14.88.22.14.47.11.56-.06s.12-.08.06.19c-.06.28.05.61.26.73a.92.92 0 0 1 .39.7c0 .25-.25.13-.54-.28-.37-.53-.64-.61-.84-.28-.16.25-.08.47.17.47s.34.17.22.38c-.12.22.08.56.48.78.39.22.59.53.45.67-.81.81-11.27-12.61-10.63-13.66.14-.22 0-.36-.29-.3s-.51-.2-.47-.63c.03-.41-.03-.64-.16-.53q-.53.55-2.5-3.24a133.46 134.4 0 0 0-2.17-4.03c-.51-.91-1.43-2.78-2.02-4.19l-1.09-2.56 1.1-.42c1.38-.53 11.37-2.77 13.42-3 .56-.06 1.83-.3 2.84-.53 3.46-.78 12.52-1.55 17.57-1.47l3.21.05.53 1.98zm-58.91.64c-11.79 7.24-23.26 20.57-28.65 33.3-.53 1.23-1.38 3.19-1.91 4.34s-.95 2.22-.95 2.34-.36 1.02-.79 1.97c-1.06 2.36-2.05 5.47-2 6.31.02.39.29-.09.59-1.08 6.47-20.75 18.25-36.93 34.12-46.85 3.9-2.44 3.91-2.45 3.38-2.45-.22 0-1.92.95-3.8 2.11m134.19 4.45c0 .27-.29.33-.71.17-.57-.22-.61-.17-.2.25.42.42.65.38 1.21-.19.42-.42.5-.69.19-.69-.26 0-.48.2-.48.45m-73.15 2.95c0 .31-.26.8-.61 1.06-.64.55-.79.14-.36-.97.29-.8.96-.86.96-.09m1.26 3.36c.34.41-.22.47-1.75.2-.17-.03-.31-.41-.31-.83 0-.95 1.35-1.34 1.57-.45.08.34.29.83.5 1.08m80.73 2.33c1.27 1.33 1.29 1.39.45 1.61-.73.19-.84.09-.67-.58.12-.47-.02-.91-.33-1.03-.47-.17-1.23-1.36-.88-1.36.06 0 .71.61 1.43 1.36m-79.38.97c.16.38.14.58-.02.42s-.65-.08-1.13.17c-.84.44-.84.44-.08-.42.93-1.05.9-1.05 1.23-.17m81.86 1.77c0 .53-1.1.47-1.46-.09-.17-.28-.11-.36.19-.17.25.16.47.08.47-.17s.19-.34.4-.2c.22.14.4.42.4.64m2.14 1.52q-.48.31-.11.91c.29.45.47.48.7.11.22-.31.53-.36.92-.11.5.33.47.39-.14.39-.4 0-.64.16-.53.33.25.41-1.6.39-2-.02-.17-.17-.09-.3.17-.3.25 0 .47-.19.47-.41s-.31-.28-.7-.17c-.61.2-.61.14.06-.41.43-.36.98-.64 1.23-.64s.23.13-.06.31m4.84 3.11c.34-.13.74-.02.92.27.2.31.14.39-.16.2-.25-.16-.78-.11-1.16.11-.87.5-2.95-.5-2.95-1.41 0-.53.23-.5 1.37.22.76.47 1.64.75 1.99.61m2.51 1.05c-.14.22-.51.41-.84.41-.31 0-.57.17-.57.39s-.28.3-.61.16c-.34-.13-.61-.41-.61-.61s.17-.28.4-.14.71.06 1.1-.17c.92-.53 1.43-.55 1.12-.03m-119.4 3.05c-.36 1.83-.36 1.92.05 1.52.23-.22.33-.75.22-1.17-.11-.41-.23-.56-.26-.34m7.96 11.13c1.21 1.19 2.11 2.25 2 2.36-.2.2-5.54-5-5.54-5.41 0-.34 1.01.53 3.54 3.05m-89.2 3.16c0 .42.19 1.05.42 1.39.29.44.33.28.12-.61-.33-1.5-.56-1.83-.54-.78m170.93 7.49c0 .45-2 .78-2.25.36-.12-.19.06-.36.4-.36.36 0 .64-.17.64-.39s.26-.28.61-.16c.33.13.61.38.61.55m-160.18 3.49c-.14.36-.25.97-.22 1.33s.19.14.39-.52c.37-1.28.25-1.92-.17-.81m-.98 4.24c-.28 1.16-.48 2.52-.45 3s.29-.3.61-1.75.51-2.8.45-3-.34.58-.61 1.75m170.45-1.61c0 .22-.28.41-.61.41s-.61-.19-.61-.41.26-.41.61-.41.61.19.61.41m-176.16.84c-.02.34.25.98.59 1.42.62.77.62.77.26-.03a24.83 25.01 0 0 1-.61-1.42c-.19-.53-.22-.52-.25.03m1.24 3.66c.23.67.51 1.16.61 1.06.2-.19-.57-2.31-.84-2.31-.11 0 0 .56.23 1.25"/><path id="path2" fill="#4eb9d4" d="M159.98 101.08c-10.21.86-19.24 2.27-20.93 3.24l-1.09.64 1.1-.17c.62-.09 1.12-.03 1.12.13s.26.28.61.28c.45 0 .48-.14.14-.55-.61-.75.71-.73 2.14.03.99.52 1.1.5 1.33-.31.22-.81.26-.83.78-.16.68.89 1.23.92.9.05-.2-.52-.05-.63.74-.47.56.11.92.05.79-.16-.11-.19.39-.36 1.13-.38l3.15-.05c3.58-.08 5.26.08 5.26.48 0 .22-.78.44-1.72.47l-1.72.06 1.83.28 1.82.28-2.09.06c-1.19.05-2.34.31-2.67.64-.31.31-1.19.66-1.96.75-.74.09-1.82.38-2.37.63l-1.01.44.99.03c.95.02.96.06.28.73-.61.63-.74.64-1.09.11-.36-.55-.43-.55-.79 0-.29.44-.4.45-.4.08 0-.3-.19-.42-.42-.28s-.31.42-.17.63c.12.22-.28.58-.9.8a17.07 17.19 0 0 0-2.22 1.02c-.59.33-1.27.61-1.54.61s-.84.36-1.32.81-1.1.81-1.4.81-.53.17-.53.39c0 .45-2.68 1.27-3.37 1.02-.78-.28-1.8.56-1.18.97.61.38-.11 1.13-2.13 2.28-.67.38-.9.59-.51.47.4-.13.71-.03.71.17 0 .52-1.09.52-1.41.02-.25-.42-1.97.17-3.04 1.05-.33.28-1.06.59-1.61.7-3.07.63-3.63.81-3.63 1.3a.92.92 0 0 0 .51.77c.26.13.09.13-.39 0-.48-.11-1.21-.03-1.61.19s-1.78.81-3.06 1.31c-1.29.52-2.61 1.34-2.95 1.86-.33.52-.87.94-1.19.94s-.98.7-1.46 1.55c-.96 1.67-2.62 2.78-2.92 1.97-.09-.25-.29.03-.47.64-.2.77-.64 1.17-1.46 1.36-.65.14-1.18.42-1.18.63 0 .2-.31.38-.68.38-.5 0-.56.13-.25.44s1.21.02 3.21-1.08a152.08 153.16 0 0 1 4.52-2.39c.95-.47 1.6-1 1.44-1.16s.11-.28.59-.28 2.82-.66 5.21-1.45c24.6-8.24 45.25-9.36 58.22-3.16 16.84 8.05 24.74 21.05 22.73 37.48-1.92 15.85-14.65 27.8-35.18 33.05-4.16 1.06-6.61 1.38-12.23 1.56-2 .06-2.33.19-2.33.84 0 .73-1.23 1.16-3.63 1.23-1.43.05-9.59.84-10.52 1.03-.54.11-2.31.25-3.93.3-1.61.05-2.7.22-2.42.41.26.17-.82.31-2.44.33-1.68 0-2.93.17-2.93.41 0 .22-.34.41-.78.41-.42 0-1.71.22-2.84.48-2.55.59-1.94 1.13 1.3 1.14 2.05 0 2.31.09 2.31.81q0 .83.82.81c.59 0 .88.36 1.06 1.22.25 1.22 1.15 1.67 1.46.73.12-.38.22-.38.45 0 .17.28.11.5-.12.5s-.42.72-.42 1.63c0 .92.19 1.63.45 1.63.31 0 .29.19-.06.61-.42.52-.36.75.33 1.34.56.5.76 1.05.62 1.77-.12.63.05 1.28.45 1.69.34.34.64 1 .64 1.45 0 .95.65 1.52.9.78.12-.38.36-.33.85.17.88.89.85 1.41-.14 1.66-1.54.41-.92 1.33.92 1.38 2.59.05 5.14.77 6.07 1.7l.82.83-1.07.28c-.59.14-.98.42-.85.63.14.22.56.19 1.01-.05.43-.23 1.38-.39 2.11-.34.73.06 1.55-.03 1.8-.19.73-.45 14.74-1.53 19.71-1.52 5.96.02 13.19-.27 13.95-.53 1.09-.41 7.96-1.03 8.85-.8.5.13.85.03.85-.23 0-.3.37-.38 1.01-.22.56.14 1.01.11 1.01-.09s.4-.38.9-.41c2.84-.19 10.01-2.09 10.01-2.67 0-.22.26-.3.59-.17s.7.08.81-.13.85-.45 1.64-.61c.9-.17 1.32-.44 1.15-.72-.19-.3-.05-.38.39-.2.37.14.67.09.67-.13 0-.2.28-.27.62-.14.33.13.61.03.61-.22s.12-.42.29-.41c.73.13 1.24-.09 2.11-.84.51-.44 1.07-.72 1.24-.61s.42-.11.56-.47.5-.55.84-.41c.33.13.95-.16 1.38-.63.47-.48.98-.7 1.27-.53.33.2.4.14.22-.16-.26-.42 0-.55.84-.44.14.03.42-.25.62-.61s.53-.56.73-.44c.2.13.56-.14.79-.59.25-.45.67-.83.96-.83.28 0 1.13-.64 1.89-1.42s1.63-1.41 1.91-1.42c.28 0 .5-.19.5-.42s.2-.41.45-.41c.54 0 3.31-2.36 3.6-3.06.11-.27.96-1.39 1.89-2.47.93-1.09 2.11-2.5 2.62-3.14s1.16-1.39 1.44-1.69.5-.69.5-.83.48-.88 1.07-1.66.95-1.39.81-1.39.06-.38.45-.83.71-.95.73-1.13.42-1.06.92-2.02c.5-.95.76-1.73.59-1.73s-.12-.14.09-.31c.62-.44 1.46-2.53 1.19-2.97-.12-.2-.06-.38.14-.38.88 0 3.12-11.22 3.27-16.44.88-30.72-22.46-55.01-59.57-61.97-3.1-.58-17.91-1.06-22.02-.72m3.52 1.14c.4.41-2.86.28-3.51-.14-.4-.25.03-.33 1.32-.25 1.07.08 2.05.25 2.19.39m-4.73.2c0 .58-.85.73-2.93.55-2.75-.25-2.37-.91.51-.91 1.32 0 2.42.16 2.42.36m-23.85 2.72c-1.44.31-3.04.75-3.55.98s-1.23.42-1.6.42c-1.18 0-4.21 1.33-3.72 1.63.26.16 1.13-.03 1.96-.44a14.43 14.53 0 0 1 3.09-1.02c.88-.16 1.83-.45 2.08-.66s.62-.33.81-.28c.64.16 3.38-.55 3.6-.92.12-.19.17-.34.11-.33s-1.32.3-2.76.61m13.75-.31c0 .17.36.31.81.31.43 0 .81-.14.81-.31s-.37-.33-.81-.33-.81.16-.81.33m-28.9 5.19c-1.02.48-1.06.55-.2.34.56-.14 1.18-.41 1.4-.61.51-.5.23-.44-1.19.27m-3.45 1.28c-.78.34-2.5 1.11-3.83 1.69-3.1 1.38-5.35 2.7-3.83 2.3.54-.16 2.09-.8 3.43-1.44 1.33-.63 3.12-1.38 3.97-1.67s1.72-.77 1.96-1.05c.56-.67.08-.63-1.69.17m19.49 4.28c-.39.38-.61.38-.98 0s-.26-.5.48-.5.87.11.5.5m-36.36 4.19c-1.63 1.02-3.12 1.83-3.34 1.83a.4.41 0 0 0-.4.41c0 .58.34.5 1.55-.36.59-.42 2.02-1.23 3.17-1.81 1.94-.98 3.06-1.91 2.28-1.89-.19.02-1.64.83-3.26 1.83m-12.32 8.35c-2.81 2.14-4.07 3.47-2.08 2.19.65-.41 1.54-1.06 1.97-1.44.45-.39 1.37-1.17 2.03-1.73 2.06-1.75.92-1.16-1.92.98m-5.57 4.74-1.8 1.91 1.91-1.58c1.06-.88 1.92-1.72 1.92-1.91 0-.52-.16-.39-2.03 1.58m-7.11 6.86c-2.62 2.8-4.93 5.41-5.14 5.8-.4.8 3.62-3.33 7.08-7.27 1.26-1.44 2.51-2.83 2.81-3.11s.4-.52.26-.52-2.41 2.3-5.01 5.09m65.02 2.94c.61.09 1.52.09 2.02-.02s0-.17-1.12-.16c-1.12 0-1.52.08-.9.17m-22.13 4.19c-.51.22-.59.34-.22.34.34 0 .98-.16 1.43-.34.5-.23.57-.36.2-.36-.34 0-.98.16-1.41.36m-50.31 1.59c-.48.69-.73 1.23-.54 1.23.45-.02 1.88-2.03 1.63-2.28-.11-.11-.59.36-1.09 1.05m46.57-.38c-1.37.56-1.1.83.29.34.67-.23 1.21-.5 1.21-.59 0-.23-.48-.16-1.51.25m58.33 1.89c1.09.81 2.53 1.95 3.18 2.55l1.23 1.05-1.23-1.36c-1.12-1.27-4.38-3.72-4.92-3.72-.14 0 .65.67 1.74 1.48m-70.87 2.78c-1.16.53-2.11 1.06-2.11 1.17 0 .19 4.87-1.7 5.21-2.03.48-.47-1.24.02-3.1.86m-37.88 1.42c-.98 1.56-1.37 2.61-.67 1.81.64-.72 2.14-3.44 1.92-3.44-.14 0-.7.73-1.26 1.63M60.85 158c-.39.53-.7 1.23-.7 1.58 0 .33-.16.7-.34.81-.47.28-2.62 5.94-2.37 6.2.11.11.43-.5.71-1.34.7-2.19 2.44-5.91 3.12-6.72.31-.38.51-.88.43-1.08-.08-.22-.47.03-.85.55m27.47.48c-1.52.8-2.67 1.52-2.58 1.63.2.2 5.93-2.63 5.93-2.94 0-.36-.61-.13-3.35 1.31m-13.52 7.13c-.95.48-1.72 1.03-1.72 1.23 0 .27 3.06-1.27 4-2 .59-.47-.85.02-2.28.77m-11.22.31c-.4.45-.54.83-.33.83.22 0 .73-.38 1.13-.83.4-.44.54-.81.33-.81s-.73.38-1.13.81m-2.2 2.34c-.53.63-1.21 1.44-1.55 1.83-.79.94-.43.92.56 0 1.52-1.44 2.72-2.94 2.33-2.94-.22 0-.82.5-1.33 1.11m8.8.02c-9.16 5.33-11.62 6.85-11.64 7.16 0 .19.67-.08 1.51-.58a204.84 206.29 0 0 1 3.13-1.83c2.13-1.23 8.32-4.92 9.09-5.44 1.35-.89-.34-.34-2.09.69m-13.67 1.31c0 .67.16 1.22.34 1.22.19 0 .25-.55.16-1.22s-.25-1.22-.34-1.22c-.08 0-.16.55-.16 1.22m0 2.78c0 .7.19 1.28.42 1.28s.36-.45.29-1c-.22-1.53-.71-1.73-.71-.28m88.21 17.03c.39.09 1.02.09 1.41 0 .39-.11.08-.19-.71-.19-.78 0-1.09.08-.7.19m-21.32.56c-1.1.14 2.16.25 7.28.25s8.85-.05 8.29-.13c-2.08-.27-13.61-.34-15.56-.13m-18.59.41c-2 .19-4.1.53-4.66.77-.96.44-.96.44.22.27 1.24-.19 9.73-.97 13.13-1.2 1.01-.06.28-.13-1.61-.14a91.56 92.21 0 0 0-7.08.31m-9.9 2c-2.61.86-2.47 1 .39.38 1.12-.23 2.03-.61 2.03-.81s-.03-.36-.09-.33-1.1.36-2.33.77m-12.8 5.59c-.42.39-.57.59-.33.42.25-.16.88-.47 1.43-.69.64-.25.74-.41.33-.42-.36 0-1.01.3-1.43.69m81.5 22.9c0 .52-.42.52-1.21 0-.48-.31-.43-.39.31-.41.5 0 .9.19.9.41m-32.32 2.3c0 .53.11.56.61.14.33-.27.61-.56.61-.66s-.28-.16-.61-.16-.61.3-.61.67m2.25.92c-1.41.56-.06.7 1.78.2 1.8-.5 1.82-.5.4-.52-.78 0-1.75.14-2.19.31m-5.26.91c-.87.2-1.68.47-1.78.58-.25.23 2.75-.05 3.58-.34.33-.13.87-.31 1.21-.42 1.06-.36-1.35-.2-3.01.19m-8.3 2.39-1.01.33 1.09.03c.59.03 1.19-.14 1.33-.36.28-.47.02-.47-1.41 0"/><path id="path4" fill="#929495" d="M275.1 118.7c.33.2-.92.45-3.24.61a155.18 156.28 0 0 0-5.38.48c-.9.13-3 .28-4.66.36s-3.12.17-3.23.22-.65.06-1.21.03c-.84-.06-.9.02-.4.39.48.36.33.41-.73.22-.73-.13-1.24-.06-1.12.13s-.14.45-.59.58-.7.05-.57-.16.03-.38-.2-.38a.43.44 0 0 0-.42.45c0 .28-.42.34-1.12.19-.87-.2-.98-.16-.51.19.5.36.39.42-.48.28-.67-.11-1.01-.02-.85.23s-.19.3-.92.13c-.74-.17-.98-.14-.64.09.4.27.28.41-.5.56-.64.13-.93.05-.78-.22.16-.25.05-.28-.31-.05-.33.19-.84.39-1.18.44-.33.06-.65.28-.73.5-.08.23-.42.3-.78.16-.47-.17-.56-.09-.33.3.25.41.12.48-.53.31-.57-.16-.79-.08-.61.2.17.28.02.34-.43.17-.4-.16-.59-.11-.43.14.31.52-1.72 1.3-2.65 1-.4-.13-.84-.05-.98.19-.16.27.02.31.47.16.4-.14.59-.11.42.08s.11.8.61 1.38c.51.56.64.86.29.64-.34-.22-.08.08.57.66.78.7 1.07 1.25.85 1.59q-.31.52.12.25c.56-.34 1.85 2.03 1.46 2.67-.17.27-.11.34.16.19.25-.16.64.08.87.52.56 1.05.54 1.36-.08 1.05-.28-.16-.11.06.36.48 2.75 2.36 6.1 14.13 6.5 22.85.19 4.06.34 4.95.81 4.78.36-.14.47-.03.31.28-.16.28.12.05.61-.52s.78-.78.62-.52q-.25.5.37.27c.34-.13.54-.39.42-.56-.56-.92 9.14-4.75 10.82-4.27.67.19.76.14.34-.14-.67-.47 2.84-1.16 3.57-.7.23.14.9-.05 1.47-.44.88-.58 2.17-.72 7.59-.77 6.15-.08 6.27-.06 2.08.22-4.3.28-4.25.28 1.61.19 3.62-.05 5.74.05 5.26.25-.54.23-.33.28.68.11 1.43-.22 6.53.72 7.93 1.45.37.2 1.01.48 1.41.61s.62.41.48.63c-.14.23.02.31.33.19 1.57-.59 12.04 4.88 11.37 5.95-.11.19.02.45.28.63.29.19.36.11.19-.17-.16-.27-.11-.48.11-.48.4 0 1.04.78 1.06 1.3 0 .16.17.42.37.61.22.2.25.13.08-.17-.16-.28-.12-.5.08-.5.45 0 1.68 1.31 1.57 1.69-.03.16.09.42.29.61.22.2.26.14.09-.14-.19-.33.08-.44.85-.36.73.09 1.1.36 1.06.8-.03.39.25.66.71.66.42 0 .76.25.76.56 0 .95 1.16 1.69 1.46.91.14-.36.43-.66.67-.66.23 0 .11.34-.26.78-.84.91-.28 1.45 1.06 1.02 1.24-.39 2.05-1.3 1.78-2.02-.14-.36 0-.59.36-.59.33 0 1.44-.92 2.5-2.03 1.77-1.89 3-2.7 2.3-1.53-.22.34-.09.33.37-.05.74-.61.95-1.08.28-.66-.82.5-.37-.58.92-2.19.71-.91 1.54-1.66 1.83-1.67.37-.02.4-.22.12-.75-.4-.75.59-1.73 1.96-1.97 1.6-.27 4.98-5.44 3.55-5.44-.19 0-.22-.2-.06-.45.36-.58 1.02.44.7 1.05-.14.23.09.11.5-.27.7-.67.7-.72-.25-1.52-.81-.67-.85-.81-.26-.83.39-.02.7.17.7.39 0 .23.37.41.81.41.99 0 1.07-.69.11-.94-.64-.17-.64-.19-.03-.23.39-.03.79.13.93.34.25.42.64.08 3.15-2.77.84-.95 1.43-1.91 1.29-2.11-.12-.22 0-.3.29-.19s.78-.2 1.09-.7c.85-1.38-4.62-6.45-14.17-13.14-3.85-2.69-6.28-4.02-11.95-6.52-1.43-.63-2.41-1.3-2.25-1.53.14-.23.05-.3-.22-.13-.59.36-3.38-.52-3.1-.97.11-.17-.16-.42-.61-.53-.43-.13-.7-.05-.57.16s.03.36-.22.36-.53-.25-.65-.56c-.12-.33-.54-.48-1.01-.36-.43.13-1.83-.08-3.1-.42s-3.12-.84-4.1-1.11c-1.37-.36-1.66-.56-1.21-.86.4-.3.19-.34-.76-.19-.82.14-1.24.08-1.09-.16.12-.22-.19-.39-.7-.39s-1.47-.08-2.14-.19c-1.12-.2-1.13-.2-.2.16.84.33.74.36-.61.2-4.52-.52-10.26-1.02-12.48-1.08l-2.48-.06 2.84-.27c2.23-.22 1.57-.28-3.24-.33-3.45-.05-5.82.08-5.51.28m-6.7.33c.39.09 1.02.09 1.41 0 .39-.11.06-.19-.71-.19s-1.09.08-.7.19m-4.45.41c.39.09 1.02.09 1.41 0 .39-.11.08-.19-.7-.19s-1.1.08-.71.19m78.71 22.71c.74.78 1.46 1.42 1.57 1.42s-.42-.64-1.16-1.42-1.46-1.42-1.57-1.42c-.12 0 .4.64 1.16 1.42m2.59 2.53c.64.78.67 1.02.22 1.63-.51.69-.51.69.23.02.76-.7.74-.73-.22-1.63l-.98-.92.74.91zm-4.22 4.28c0 .69-.7 1.77-.96 1.5-.31-.31.2-2 .62-2 .19 0 .34.22.34.5m-90.38 12.31c0 1.8.08 2.47.16 1.52.09-.95.09-2.42 0-3.25s-.16-.06-.16 1.73m-163.9 33.9c-1.27.61-2.33 1.23-2.33 1.39s.9-.16 1.99-.72 2.17-1 2.42-1 .45-.17.45-.41c0-.5.23-.56-2.53.73m-8.66 4.99c-2.3 1.75-3.24 2.83-1.8 2.05.48-.25.85-.66.85-.88s.16-.33.36-.2c.19.11.84-.33 1.47-.98.62-.66 1.3-1.08 1.54-.94.23.14.28.05.11-.22-.36-.58-.06-.72-2.53 1.17m-7 5.89c-.76.78-1.23 1.42-1.04 1.42s.08.31-.22.7c-.47.59-.4.59.34-.05.5-.42.81-.91.7-1.08-.23-.38.79-1.28 1.16-1 .14.11.17.08.06-.08-.11-.14 0-.5.25-.81.9-1.08.08-.52-1.26.89m-2.89 3.34a2.33 2.34 0 0 0 0 .63c.03.16-.12.3-.34.3s-1.12 1.09-2.03 2.44c-.9 1.34-1.46 2.45-1.23 2.45s.42-.16.42-.33.92-1.47 2.02-2.86c1.12-1.39 2.03-2.61 2.03-2.72 0-.33-.81-.23-.87.09m161.67 5.3c.2 1.41.22 1.44.36.36.08-.64-.02-1.33-.22-1.53s-.26.3-.14 1.17m-2.22 1.13c-1.4 1.16-2.13 1.31-1.33.3.51-.64.5-.66-.14-.16-.39.31-.62.7-.51.88.17.28-1.96 1.83-5.25 3.77-2.75 1.63-7.25 3.58-7.77 3.38-.36-.14-.45-.05-.28.25q.29.47-.37.22c-.39-.16-.64-.08-.57.2.12.59-3.6 2.08-5.26 2.08-.79.02-1.13.14-.82.33.39.23.36.36-.09.48-.33.09-1.86.55-3.43 1.02a79.14 79.7 0 0 1-6.25 1.48c-1.89.36-3.8.73-4.25.83-.65.14-.81.5-.81 2-.02 1.13.11 1.64.33 1.34.22-.31.28-.16.16.42-.11.5-.06.83.11.72.43-.27 1.4 3.27 1.04 3.84-.16.23-.08.39.17.33s.82.98 1.26 2.33c1.88 5.64 6.33 14.46 10.02 19.82 3.2 4.63 10.99 13.21 11.51 12.67.14-.14.26-.05.26.23 0 .27.2.36.47.2.25-.16.36-.11.22.11-.33.53 4.44 4.74 4.98 4.41.23-.14.36-.05.29.22-.05.25.61.92 1.47 1.5 1.26.81 1.52.88 1.3.31-.19-.52-.11-.64.34-.45.34.13.62.05.62-.17 0-.2-.23-.39-.51-.39-1.12-.02-1.69-.7-1.13-1.39.67-.8-.56-1.44-1.32-.67-.37.38-.29.42.33.2.67-.23.73-.19.31.25-1.16 1.27-1.38-.27-.33-2.25.59-1.13 1.04-2.63 1.04-3.52 0-.86.14-1.58.31-1.58s1.09-.72 2.02-1.63 1.86-1.63 2.09-1.63.42-.19.42-.42c0-.8 1.77-2.83 2.45-2.83.37 0 .78-.34.88-.77.12-.48.71-.86 1.66-1.03.88-.17 1.47-.52 1.47-.88 0-.33.17-.59.4-.59s.4-.72.4-1.63-.19-1.63-.4-1.63-.4.28-.4.61c0 .44-.45.61-1.57.61-.9 0-1.78-.25-2.08-.61-.42-.52-.36-.61.39-.61 1.72 0 3.17-2.02 3.06-4.3-.06-1.13-.02-1.34.08-.48.22 1.94 3.35 2.47 3.35.56 0-.53.28-1.2.61-1.48.34-.28.96-1.31 1.4-2.28.74-1.67 1.4-2.09 2.96-1.83.19.03.11-.34-.16-.83-.45-.88-.5-.88-1.02-.14-.51.72-.56.69-.56-.38 0-.86.16-1.08.64-.89.36.13.51.06.39-.16-.14-.22-.84-.56-1.54-.78-1.13-.33-1.18-.38-.31-.41l.99-.03-1.3-1.34c-.7-.75-1.29-1.47-1.29-1.61s-.53-1.06-1.16-2.02c-2.13-3.19-5.85-11.58-6.24-14.03-.11-.72-.31-1.47-.43-1.69-.34-.56-1.46-6.58-1.46-7.88 0-1.53-.47-1.66-1.85-.53m-164.04.2c-.14.22-.33.78-.42 1.27-.08.47-.48 1.11-.88 1.41s-.53.56-.31.58c.22 0 .16.17-.14.36-.33.22-.39.45-.16.59.22.14.98-.84 1.68-2.19 1.02-1.94 1.23-3.64.23-2.02m-2.5 4.99c.14.39.11.7-.08.7-.53 0-3.45 8.22-3.38 9.55.05 1.06 0 1.13-.33.42l-.37-.81.09.81c.14 1.02.88.7.95-.41.03-.44.23-1.27.47-1.83.22-.56.88-2.38 1.49-4.05.59-1.67 1.29-3.28 1.52-3.58.34-.41.31-.67-.08-1.03-.42-.41-.48-.36-.28.22m106.47 1c.5.09 1.23.09 1.61-.02.39-.09-.03-.17-.92-.17s-1.21.08-.7.19m-14.56 10.17c.5.09 1.23.09 1.61-.02s-.02-.17-.92-.17c-.88 0-1.19.09-.7.19m-.92.81c-3.63.2-11.02 1.03-12.73 1.42-1.01.23-2.28.47-2.82.53-2.06.23-12.04 2.47-13.44 3l-1.1.42 1.09 2.56c.59 1.41 1.51 3.28 2.02 4.19s1.49 2.7 2.19 4.03q1.96 3.78 2.48 3.24c.12-.11.19.13.16.53-.03.42.17.69.47.63.29-.06.43.08.29.3-.29.47 3 5.52 5.45 8.38.92 1.06 1.57 2.16 1.46 2.45s.11.77.48 1.06c.61.48.62.47.12-.17-.96-1.23-.09-.77 1.41.73.79.81 1.57 1.34 1.71 1.2s-.06-.45-.45-.67-.61-.56-.48-.78c.12-.2.03-.38-.22-.38s-.33-.22-.17-.47c.2-.33.47-.25.84.28.29.41.54.53.54.28a.92.92 0 0 0-.39-.7c-.22-.13-.33-.45-.26-.73.06-.27.05-.36-.05-.19-.11.17-.36.2-.57.06-.23-.14-.17-.48.14-.88.45-.55.4-.59-.47-.31-.93.3-.95.28-.29-.38.85-.86.85-.97-.02-.89a.82.83 0 0 1-.82-.64c-.2-.92 1.85-1.52 2.36-.69.26.42.48.23.85-.75.31-.8.79-1.33 1.21-1.33.39 0 .88-.34 1.12-.77.22-.42 1.04-.89 1.83-1.03 2.05-.39 1.91-1.45-.19-1.45-1.18 0-1.63-.17-1.63-.61s.43-.63 1.46-.63c1.92 0 2.96-1.23 2.98-3.55.02-1.28-.14-1.73-.59-1.73-.87 0-.76-.31.61-1.69.67-.67 1.13-1.38 1.01-1.56s.08-.55.4-.83c.5-.41.61-.38.61.16 0 .47.36.67 1.21.67 1.15 0 1.21-.09 1.21-1.64 0-1.56-.05-1.63-1.3-1.64l-1.32-.02 1.01-.58c.56-.31 1.43-.58 1.94-.59s1.49-.31 2.17-.66 1.37-.5 1.51-.3c.47.67 3.21 1.31 3.46.8.11-.27.11.11-.02.83-.22 1.27-.2 1.28.82.81.79-.36.99-.69.81-1.3a45 45.32 0 0 1-.61-2.44 119.49 120.34 0 0 0-.9-3.63l-.53-1.98-3.21-.05c-1.77-.03-3.96 0-4.84.05m-95.36.83c.16.56.06.92-.22.92s-.36.33-.19.86c.16.5.08.98-.19 1.14-.73.47-1.89 9.39-1.21 9.39.28 0 .53-1.34 1.02-5.5a38.8 39.07 0 0 1 .79-4.22c.4-1.53.43-2.39.16-2.84-.34-.53-.37-.48-.17.25m179.52 6.49c-.56.56-.79.61-1.21.19-.4-.42-.36-.47.2-.25.42.16.71.09.71-.17 0-.25.22-.45.48-.45.31 0 .23.27-.19.69m-74.41 2.81c-.43 1.11-.28 1.52.36.97.67-.55.82-1.63.25-1.63-.2 0-.47.3-.61.66m.87 1.7c-.68.14-1.02 1.66-.4 1.77 1.54.27 2.09.2 1.75-.2a3.1 3.13 0 0 1-.5-1.08c-.08-.34-.47-.56-.85-.48m-108.47 3.53c.17 2.06.67 2.28.67.28 0-.92-.17-1.69-.39-1.69s-.33.64-.28 1.41m189.23-.42c.12.31.47.67.78.78.31.13.45.56.33 1.03-.17.67-.06.77.67.58.84-.22.82-.28-.45-1.61-1.46-1.52-1.63-1.63-1.32-.78m-79.28 1.92c-.76.86-.76.86.09.42.47-.25.98-.33 1.13-.17s.16-.05 0-.42c-.33-.88-.29-.88-1.23.17m-79.24.05c-.53.86-.56 1.7-.03 1.17.43-.44.79-1.69.5-1.69-.08 0-.29.23-.47.52m-31.15 4.28c.09 2.52.33 4.75.53 4.95.5.52.22-8.13-.29-8.94-.25-.41-.33.97-.23 3.99m192.66-3.17c0 .25-.22.33-.47.17-.29-.19-.36-.11-.19.17.36.56 1.46.63 1.46.09 0-.22-.19-.5-.4-.64-.22-.14-.4-.05-.4.2m1.8 2.28c-.68.55-.68.61-.08.41.39-.11.7-.05.7.17s-.2.41-.47.41-.34.13-.17.3c.4.41 2.25.42 2 .02-.11-.17.12-.33.53-.33.62 0 .64-.06.14-.39-.39-.25-.7-.2-.92.11-.23.38-.4.34-.68-.11q-.39-.59.09-.91c.29-.19.31-.31.06-.31-.23 0-.79.28-1.21.64m2.64 1.95c0 .91 2.08 1.91 2.95 1.41.39-.22.92-.27 1.16-.11.29.19.36.11.16-.2-.17-.28-.57-.39-.92-.27s-1.23-.14-1.97-.61c-1.15-.72-1.38-.75-1.38-.22m80.63 1.88c1.09 1.11 2.08 2.03 2.19 2.03s-.7-.92-1.78-2.03c-1.1-1.13-2.08-2.03-2.2-2.03-.11 0 .7.91 1.8 2.03m-75.88.03c-.39.23-.88.31-1.1.17s-.4-.08-.4.14.26.48.61.61c.33.14.61.06.61-.16s.26-.39.57-.39c.33 0 .7-.19.84-.41.31-.52-.2-.5-1.12.03m-201.38 3.8c-.33 1.33-.09 2.38.59 2.59.45.16.5-.06.25-.98-.17-.64-.29-1.48-.28-1.88.05-1.03-.26-.88-.56.27m83.15.73c-.4.41-.4.31-.05-1.52.03-.22.16-.06.26.34.11.42.02.95-.22 1.17m-61.25.5c-.36.56-.64 1.16-.64 1.33.02.17.2 0 .43-.41.23-.39.54-.63.7-.53s.29-.17.29-.61c0-.98 0-.98-.79.22m-20.2 2.02c.14.36.42.66.64.66.54 0 .2-.94-.4-1.14-.29-.09-.39.09-.23.48m-1.21.55c-.39 1.36.85 9.06 1.46 9.06.2 0 .33.5.28 1.11-.17 2.27 0 3.16.53 2.63.57-.58 1.94-.66 1.94-.09 0 .22-.29.28-.65.14-.68-.27-1.37.48-1.37 1.5 0 .55.05.55.43 0 .33-.48.37-.42.17.27-.28 1.02.54 4.7.99 4.42.16-.09.31.36.33 1.02.05 1.67.96 4.08 1.44 3.78.23-.16.29.11.16.63-.12.48-.08.78.09.67s.43.09.57.44c.14.36.06.52-.16.38-.23-.14-.4-.08-.4.14s.29.5.65.64c.4.16.57.55.43 1.06s-.05.7.23.53.33-.02.16.45c-.19.52-.11.66.26.52q.54-.2.47.67c-.09 1.31 1.09 3.64 1.54 3.02q.37-.52.17.41c-.11.5-.02.91.2.91.23 0 .34-.61.25-1.39-.09-.81 0-1.3.23-1.16s.28-.36.14-1.27q-.25-1.48.19-1.23c.26.17.33-.05.14-.61-.4-1.31.19-4.58.64-3.5.22.52.25.25.09-.77-.19-1.16-.12-1.52.23-1.3.34.22.4.02.22-.72-.14-.56-.05-1.36.2-1.77.4-.64.43-.61.22.28-.2.86-.17.91.22.3.34-.55.29-1.27-.19-2.92-.73-2.55-.76-2.8-.25-2.48.2.13.5.02.67-.23.2-.34.45-.25.84.27.64.89.65.8.17-.92-.37-1.3.14-1.72.87-.72.19.25.29.23.29-.08.02-.27-.16-.59-.36-.72s-.5-.95-.64-1.84c-.17-1-.5-1.63-.85-1.63-.39 0-.57-.5-.57-1.64 0-.89-.17-1.63-.4-1.63s-.4.47-.4 1.02c0 .86-.19 1.02-1.21 1.02s-1.21-.16-1.21-1.02c0-.89-.17-1.02-1.44-1.02-1.43 0-2.59-.73-2.59-1.63 0-.58-1.01-1.63-1.57-1.63-.61 0-3.31-2.89-3.07-3.28.11-.17.03-.44-.17-.56-.22-.13-.48.08-.61.48m1.78 2.95c-.76.47-.99.22-.65-.66.2-.55.37-.59.74-.2.39.38.37.56-.09.86m16.6.2c-.28.8-.67 1.33-.88 1.2-.2-.13-.26.05-.14.38s.02 1-.23 1.48c-.37.69-.37 1 .02 1.36.39.34.43.34.25-.02-.33-.58.11-1.83.54-1.56.19.13.23-.17.11-.63-.14-.55-.03-.8.31-.72s.56-.41.64-1.41c.14-1.88.05-1.89-.61-.09m269.91.81c.74.78 1.46 1.42 1.57 1.42s-.4-.64-1.16-1.42-1.46-1.42-1.57-1.42c-.12 0 .4.64 1.16 1.42m-280.87-.31c0 .61 1.18 2 1.19 1.41.02-.3-.26-.81-.59-1.16-.33-.33-.61-.44-.61-.25m79.61-.16c0 .41 5.34 5.61 5.54 5.41.11-.11-.79-1.17-2-2.36-2.53-2.52-3.54-3.39-3.54-3.05m-72.33 3.63c.02.89.74 1.72 1.57 1.77q.79.05.56-.53c-.19-.48-.28-.5-.56-.05-.19.3-.37.41-.4.23a13.97 14.07 0 0 0-.16-.72 7.76 7.81 0 0 1-.16-.81c-.08-.59-.85-.5-.85.11m.16 3.77c0 .84.08 1.33.16 1.08.09-.27.31-.39.5-.27.17.11.22-.19.09-.67-.16-.61-.08-.8.23-.59.31.19.39.06.22-.38-.19-.48-.34-.53-.56-.19-.22.38-.34.38-.47-.02-.09-.28-.17.17-.17 1.03m-1.26 1.02c.12.45.05.7-.16.58-.2-.13-.36.16-.36.61 0 .89-.59 1.14-1.02.44-.12-.22-.05-.41.19-.41.23 0 .42-.45.42-1.02 0-1.22.64-1.36.93-.2m-8.89 2.03c-.22.88-.99 1.16-.82.31.08-.42.67-1.09.98-1.13.03 0-.03.36-.16.81m8.07 2.13c-.22.28-.28.88-.11 1.33.25.69.31.64.51-.41.26-1.42.17-1.64-.4-.92m158.32.73c0 .22-.28.39-.64.39s-.53.17-.4.36c.25.42 2.25.09 2.25-.36 0-.17-.28-.42-.61-.55-.34-.13-.61-.06-.61.16m9.3 6.5c0 .22.26.41.61.41s.61-.19.61-.41-.28-.41-.61-.41-.61.19-.61.41m36.47 10.05c.39.09 1.02.09 1.41 0 .39-.11.08-.19-.7-.19-.79 0-1.1.08-.71.19m13.73 0c.4.09 1.04.09 1.43 0 .39-.11.06-.19-.71-.19-.78 0-1.1.08-.71.19"/><path id="path3" fill="#3388b7" fill-opacity="null" stroke="null" stroke-dasharray="null" stroke-linecap="null" stroke-linejoin="null" stroke-opacity="null" stroke-width="null" d="M158.46 101.14c.62.09 1.61.09 2.22 0 .62-.09.12-.17-1.1-.17s-1.72.08-1.12.17m1.54.94c.65.42 3.91.55 3.51.14-.14-.14-1.12-.31-2.19-.39-1.29-.08-1.72 0-1.32.25m-6.08.34c0 .41 3.51.83 4.35.55 1.27-.44.29-.91-1.91-.91-1.33 0-2.44.16-2.44.36m-4.95.78c-.84.08-1.44.28-1.33.45s-.25.23-.81.13c-.79-.16-.95-.05-.74.47.33.88-.22.84-.9-.05-.51-.67-.56-.66-.79.16-.22.81-.33.83-1.32.31-1.43-.77-2.75-.78-2.14-.03.34.41.31.55-.14.55-.34 0-.61-.13-.61-.28 0-.16-.5-.22-1.12-.13l-1.1.17 1.01-.61c1.24-.77 1.15-.77-1.61-.03-1.27.34-1.66.53-.92.47 1.63-.17 1.33.17-.68.78-.96.28-1.78.31-2.2.08-.47-.25-.64-.22-.56.11.06.28-.73.69-1.91.97-1.12.27-2.59.77-3.29 1.11-.78.39-1.49.5-1.82.3-.47-.3-.45-.36.02-.36.33 0 .48-.11.36-.22-.33-.33-1.55.25-1.32.64.29.47-1.18.86-2.03.53-.54-.2-.65-.14-.42.23.23.38.11.45-.5.27-.54-.17-.88-.05-1.06.41-.17.42-.54.59-1.07.45-.48-.13-.7-.05-.54.2.16.27-.08.31-.65.13-.57-.19-.82-.14-.67.11.31.52-.36 1.03-2.17 1.7-.78.28-2.5 1.02-3.83 1.64-2.72 1.28-4.86 1.97-3.83 1.25.33-.23.42-.42.19-.42-.23-.02-1.01.53-1.74 1.2-1.33 1.23-1.94 1.56-1.49.83.14-.23-.02-.3-.37-.17-.34.14-.54.39-.43.56.11.19-.08.44-.42.58-.36.13-.53.06-.39-.16s-.03-.3-.37-.16c-.36.13-.53.41-.4.61s-.36.69-1.06 1.06c-.7.39-2.28 1.31-3.51 2.03-1.23.73-2.36 1.23-2.53 1.14-.16-.11-.64.09-1.06.44-.43.34-.51.48-.2.33.36-.19.47-.14.28.16-.14.25-.51.36-.82.23-.31-.11-1.24.48-2.09 1.34-.84.84-1.4 1.28-1.23.94.19-.34.08-.3-.25.09s-.7.63-.84.52c-.16-.11-.19-.08-.06.08.23.33-.57 1.36-1.09 1.36-.22 0-.25-.22-.08-.5.16-.27-.28-.06-.99.44-1.16.84-1.86 1.69-.88 1.08.23-.14.4-.06.4.16s-.34.61-.78.84c-1.04.56-1.35.53-.99-.09.17-.28-.09-.16-.57.27-.48.44-.88 1.02-.88 1.3 0 .56-2.19 2.3-2.5 1.98-.11-.11-1.09.89-2.19 2.2-1.09 1.31-2.34 2.63-2.79 2.91s.02-.39 1.01-1.48l1.83-1.98-1.96 1.83c-2.11 1.98-7.4 7.89-6.24 6.99 1.23-.97.78.14-.56 1.39-.7.66-1.13.94-.95.63.22-.39.17-.48-.17-.27-.28.17-.39.58-.26.89s.06.5-.12.38c-.19-.11-.7.2-1.12.69-.62.75-.64.81-.05.34.85-.66.96.06.09.78-.33.28-.61.36-.61.2 0-.17-.28-.08-.62.22-.34.28-.53.77-.4 1.08.11.31.05.47-.17.34-.2-.14-.59.17-.87.69-.45.84-.43.88.2.36.59-.5.64-.48.42.09-.14.38-.48.67-.76.67-.29 0-.78.33-1.07.72-.51.66-.5.66.22.09.64-.48.57-.23-.29 1.22-.61 1.02-1.27 1.8-1.49 1.73-.22-.05-.67.5-1.02 1.22-.56 1.17-.56 1.23 0 .53.5-.64.62-.66.62-.16 0 .36-.28.88-.61 1.16s-.61.75-.61 1.03-.19.66-.4.8c-.23.14-.29-.06-.17-.48.2-.59.16-.63-.17-.14-.23.31-.33.73-.22.91.11.17-.31 1.61-.92 3.17-.61 1.58-1.23 2.66-1.38 2.41-.48-.77-.76 1.38-.4 2.98.19.84.19 1.53 0 1.53-.17 0-.4-.5-.5-1.13s-.17-.11-.19 1.13c-.02 1.67.06 1.98.29 1.22.36-1.09.48-.88.61 1.02.14 2.39.5 2.69 2.05 1.77.74-.44 1.55-.69 1.8-.55.23.16.37.05.31-.22s.14-.58.45-.69q.56-.22.25.31-.33.52.14.23c.26-.17.39-.44.29-.61-.31-.48 4.93-3.39 5.51-3.06.29.17.39.16.22-.03-.16-.19-.09-.58.16-.88.56-.67 1.72-.75 1.32-.08-.17.3-.11.36.19.17.26-.16.37-.45.25-.66-.12-.2.33-.64.99-.98 1.43-.75 1.78-.8 1.41-.16-.19.28-.12.36.17.17a1.09 1.09 0 0 0 .47-.83c0-.3.29-.66.64-.8.92-.34 1.07-.3.74.23-.19.28-.11.36.19.17.25-.17.36-.47.23-.67s.25-.56.82-.8c1.35-.5 1.8-.5 1.01 0-.33.22-.42.39-.2.39.7-.02 1.83-1.06 1.52-1.41-.17-.19-.09-.2.17-.06.59.34 1.82-.11 1.54-.56-.11-.19.02-.47.26-.63.29-.19.37-.13.19.17-.16.27-.17.47-.05.47.53 0 4.24-2.31 4.03-2.53-.12-.11.08-.33.42-.47.37-.14.54-.08.4.16-.14.22.03.3.39.16.34-.14.5-.44.36-.67-.17-.28-.02-.34.42-.17.4.16.61.11.47-.11-.31-.52 2.93-2.17 3.66-1.89.31.13.51.02.47-.23s.16-.53.47-.64c.34-.13.45-.03.28.25s-.05.36.36.22c.34-.14.62-.41.62-.61s.14-.33.31-.27c.43.14 5.93-2.22 6.1-2.63.25-.61 2.55-1.61 3.15-1.38.33.13.48.06.36-.14-.26-.45 1.23-1 1.77-.66.2.13.62 0 .92-.28s.71-.52.93-.53c1.02-.03 5-1.58 4.81-1.88-.11-.19.09-.23.45-.09.34.14.99-.06 1.41-.45.43-.39 1.07-.61 1.43-.47.4.16.54.09.36-.19-.17-.3.02-.36.53-.2.93.3 2.23-.09 1.94-.56-.25-.41 1.71-.94 2.22-.61.2.13.84.09 1.43-.05.64-.16.88-.39.61-.56-.25-.16.4-.28 1.46-.28s1.99-.19 2.06-.44.53-.33.99-.2c.51.14.74.06.59-.19s.14-.33.74-.22c.56.11 1.01.03 1.01-.16s.84-.38 1.85-.39c1.02-.03 1.99-.2 2.13-.41.14-.2 1.63-.44 3.29-.52s3.09-.28 3.15-.44c.14-.36 13.63-.2 14.21.16.23.16.84.22 1.33.16s1.13.03 1.41.2c.26.17 1.23.34 2.11.38.9.03 1.63.22 1.63.39 0 .19.5.22 1.1.09.9-.2 1.01-.16.51.22-.5.41-.45.45.31.28.5-.11.9-.02.9.22 0 .22.37.31.81.2s.73-.06.61.11.09.44.43.56c.36.14.51.08.37-.16s.03-.28.39-.16c.34.14.53.41.4.61-.12.2.06.25.4.11.34-.13.64-.03.64.23s.16.38.36.25.43-.06.51.14c.08.22.4.44.73.52s.93.45 1.37.83.95.61 1.13.48c.47-.28 2.42 1.28 2.06 1.64-.16.16-.02.17.33.05.37-.16 1.19.41 2.2 1.5 1.23 1.33 1.32 1.48.37.72-.68-.56-.5-.3.4.58s1.38 1.44 1.07 1.25c-.36-.2-.28.08.2.73.42.59.92 1.08 1.1 1.09.17 0 .22.19.08.42-.14.22-.05.41.2.41s.36.16.23.36c-.12.2.05.47.39.59.47.19.54.64.36 1.98-.17 1.27-.12 1.56.19 1.13.31-.45.4-.17.34 1.13-.03.95-.19 1.72-.33 1.72s-.37.77-.5 1.7c-1.32 9.97-14.98 20.24-30.28 22.79-1.78.3-2.59.59-2.25.81.29.2-.67.3-2.31.23-1.55-.05-6.1 0-10.1.09l-7.26.19 6.66.23c6.66.23 6.64.23-2.62.25-5.12.02-8.38-.09-7.28-.25 1.13-.16-1.33-.27-5.65-.27-4.7.02-6.66.13-5.06.28l2.62.25-2.62.08c-2.42.08-8.09.58-11.92 1.08-1.18.14-1.4.11-.81-.17.67-.31.68-.39.12-.41-.37-.02-.79.14-.93.36s-.5.28-.82.16a.65.66 0 0 0-.82.41c-.14.36-1.15.81-2.37 1.08-1.18.25-3.09.81-4.27 1.27-1.18.45-2.39.72-2.72.59s-.47-.06-.36.13c.29.45-1.72 1.36-2.28 1.02-.23-.16-.31-.08-.17.16.29.48-.82 1.05-1.38.69-.2-.13-.28.02-.17.31.11.31-.61.91-1.83 1.5-1.1.55-2.93 1.69-4.07 2.55s-2.25 1.45-2.48 1.3c-.23-.14-.33-.08-.19.14s-1.01 1.64-2.55 3.16c-6.6 6.49-14.54 20.44-14.54 25.52 0 .42-.17 1.08-.39 1.47-.42.8-1.55 5.97-1.83 8.44-.11.89-.4 2.73-.67 4.08-.65 3.25-.61 19.13.06 19.13.03 0 .11.28.17.63.16.75 2.53 3.24 3.1 3.24.56 0 1.57 1.05 1.57 1.63 0 .89 1.16 1.63 2.59 1.63 1.27 0 1.44.13 1.44 1.02 0 .86.19 1.02 1.21 1.02s1.21-.16 1.21-1.02c0-.55.19-1.02.4-1.02s.4.73.4 1.63c0 1.14.19 1.64.57 1.64.36 0 .68.64.87 1.72l.31 1.73.33-1.22c.19-.67.23-1.59.12-2.03-.17-.59-.12-.67.16-.27.7 1.02.79-.42.11-1.64-.34-.61-.48-1.25-.31-1.42.36-.36 1.13.67.85 1.14-.11.16-.03.39.17.52.48.3 1.82-3.28 1.44-3.88-.19-.3-.12-.38.14-.22.26.17.65-.31.95-1.16.29-.78.64-1.42.76-1.42s.59-.78 1.01-1.73c2.82-6.45 12.52-18.58 18.79-23.5 2.39-1.88 3.46-2.97 3.32-3.39-.06-.19.12-.27.39-.17.28.09 1.88-.69 3.55-1.72 4.28-2.64 11.33-6 15.38-7.35 8.6-2.84 12.71-3.84 19.85-4.86 5.43-.77 3.09-3.28-3.18-3.41-1.83-.05-2.45-.97-.92-1.38.99-.25 1.02-.77.14-1.66-.5-.5-.73-.55-.85-.17-.23.73-.9.17-.9-.78 0-.45-.29-1.11-.64-1.45-.4-.41-.57-1.06-.45-1.69.14-.72-.06-1.27-.62-1.77-.68-.59-.74-.83-.33-1.34.36-.42.37-.61.06-.61-.62 0-.59-3.14.03-3.34.37-.14.37-.23 0-.47-.26-.17-.48-.11-.48.13 0 1-1.13.33-1.37-.8-.17-.86-.47-1.22-1.06-1.22-.54 0-.82-.27-.82-.81 0-.72-.26-.81-2.31-.81-3.24-.02-3.85-.55-1.3-1.14 1.13-.27 2.42-.48 2.84-.48s.78-.17.78-.38 1.32-.47 2.93-.58c1.61-.13 4.66-.41 6.77-.66 4.44-.52 11.65-1.23 12.54-1.27 2.41-.08 3.63-.5 3.63-1.23 0-.66.33-.78 2.33-.84 5.62-.19 8.07-.5 12.24-1.56 9.47-2.42 25.11-10.44 23.98-12.3-.16-.25-.09-.33.16-.17.23.14 1.29-.69 2.34-1.88 12.93-14.38 11.87-36.16-2.34-48.63-15.74-13.78-37.74-15.17-69.93-4.39-2.39.8-4.73 1.45-5.21 1.45s-.74.13-.59.28c.16.16-.5.69-1.44 1.16-.96.47-3 1.55-4.52 2.39-1.99 1.09-2.9 1.41-3.21 1.08-.31-.31-.25-.44.25-.44.37 0 .68-.17.68-.38 0-.2.53-.48 1.18-.63.82-.19 1.26-.59 1.46-1.36.17-.61.37-.89.47-.64.29.81 1.97-.3 2.92-1.97.48-.84 1.15-1.55 1.46-1.55s.87-.42 1.19-.94 1.66-1.34 2.95-1.86c1.27-.5 2.65-1.09 3.06-1.31.4-.22 1.13-.3 1.61-.19.5.13.67.13.39 0a.92.92 0 0 1-.51-.77c0-.47.79-.73 3.82-1.31a3.72 3.75 0 0 0 1.41-.67c1.07-.89 2.81-1.5 3.07-1.06.31.5 1.4.5 1.4-.02 0-.2-.31-.3-.71-.17-.39.13-.16-.09.51-.47 2.03-1.16 2.73-1.91 2.13-2.28-.62-.41.4-1.25 1.18-.97.68.25 3.37-.56 3.37-1.02 0-.22.23-.39.53-.39s.92-.36 1.4-.81 1.07-.81 1.32-.81.95-.28 1.54-.61a17.07 17.19 0 0 1 2.22-1.02c.62-.22 1.02-.58.9-.8-.14-.2-.05-.48.17-.63.23-.14.42-.02.42.28 0 .38.11.36.4-.08.36-.55.43-.55.79 0 .34.53.48.52 1.09-.11.68-.67.67-.72-.28-.73l-.99-.03 1.01-.44c.56-.25 1.63-.53 2.39-.63.74-.09 1.63-.44 1.94-.75.33-.33 1.47-.59 2.67-.64l2.09-.06-1.82-.28-1.83-.28 1.72-.06c.95-.03 1.72-.25 1.72-.47s-.78-.44-1.72-.47c-4.14-.13-5.04-.13-6.47-.02m1.32 1.63c0 .17-.36.31-.81.31s-.81-.14-.81-.31.36-.33.81-.33.81.14.81.33m-20.2 1.3c-.84.28-.87.34-.2.36.45.03 1.09-.14 1.41-.36.71-.45.22-.45-1.21 0m4.76 9.46c.39.38.59.38.98 0s.26-.5-.5-.5-.85.11-.48.5m89 6.22c.74.78 1.46 1.42 1.57 1.42s-.42-.64-1.16-1.42c-.76-.78-1.47-1.42-1.58-1.42s.42.64 1.18 1.42M74.17 140.86c-.82 1-1.78 1.94-2.16 2.08-.68.27-.5.02 2.3-3.13 1.58-1.8 1.47-.94-.14 1.05m167.16 16.55c0 .78.09 1.09.19.7.11-.39.11-1.03 0-1.42-.09-.39-.19-.08-.19.72m-176.89 8.53c-.4.45-.92.83-1.13.83-.22 0-.08-.38.33-.83.4-.44.92-.81 1.13-.81s.08.38-.33.81m-2.25 2.34c-1.26 1.41-2.47 2.55-2.72 2.55-.12 0 .06-.33.4-.72s1.04-1.2 1.55-1.83 1.12-1.11 1.33-1.11c.22 0-.03.5-.57 1.11m43.37 21.97c.62.09 1.52.08 2.02-.02.5-.09 0-.17-1.12-.17-1.1.02-1.51.09-.9.19m121.31 9.56-1.18 1.33 1.3-1.19c.73-.66 1.32-1.27 1.32-1.33 0-.31-.33-.03-1.44 1.19m-64.43 21.07c.79.52 1.21.52 1.21 0 0-.22-.4-.41-.9-.41-.74.02-.79.09-.31.41m-29.9 1.78c0 .09-.26.39-.61.66-.5.42-.61.39-.61-.14 0-.38.28-.67.61-.67.34 0 .61.08.61.16m-75.67 41.7c.25.73-.59.58-.87-.17-.16-.39-.06-.58.23-.48a1.15 1.16 0 0 1 .64.66m-.95 2.67c-.34.88-.11 1.13.65.66.47-.3.48-.48.09-.86-.37-.39-.54-.34-.74.2m7.5 2.77c0 .33-.23.23-.61-.25-.78-1.03-.76-1.69.02-.91.33.34.61.86.59 1.16m4.05 7.05c0 .56-.19 1.02-.42 1.02s-.31.19-.19.41c.43.7 1.02.45 1.02-.44 0-.45.16-.73.36-.61.2.13.28-.13.16-.58-.29-1.16-.93-1.02-.93.2m-8.27 1.33c-.54.39-.71 1.31-.25 1.31.19 0 .45-.36.56-.81.23-.91.23-.91-.31-.5m8.47 2.14c-.14.22-.42.3-.62.17-.47-.28-.45.56.05 1.64.36.8.36.8.28-.03-.06-.47.16-1.16.45-1.53.31-.36.45-.67.33-.67s-.34.19-.48.42"/></g></g></svg>