<svg xmlns="http://www.w3.org/2000/svg" id="svg" width="400" height="400" viewBox="0 0 400 400"><g id="svgg" fill-rule="evenodd" stroke="none"><path id="path0" fill="#3b3b3c" d="M0 200v200h400V0H0zm190.234-62.54c10.859 2.424 17.207 5.36 24.123 11.159 20.271 16.997 16.286 47.833-7.716 59.713-8.48 4.196-14.703 5.503-28.516 5.988-37.666 1.323-54.245 11.948-62.873 40.294-.477 1.57-1.71 7.625-1.71 8.403 0 2.063-2.164-2.535-4.287-9.111-.723-2.238-2.106-8.52-2.35-10.677-2.575-22.722 6.119-40.817 22.567-46.968 6.107-2.284 8.093-2.524 22.872-2.764 13.72-.223 14.853-.336 20.14-2.003 10.348-3.262 17.062-12.404 13.835-18.838-4.284-8.54-19.078-11.436-35.798-7.007-9.29 2.461-23.102 8.413-31.781 13.695a48 48 0 0 1-1.813 1.04c-1.589.856-6.092 3.507-6.825 4.019-1.722 1.202-2.846-1.956-1.872-5.254 4.607-15.592 27.042-34.011 47.708-39.167l4.609-1.151c2.92-.73 6.154-1.279 10.807-1.837 3.669-.439 16.211-.13 18.88.466m72.006 11.209c12.663 2.027 23.893 7.571 31.611 15.607l1.013 1.054-1.273 1.408c-6.138 6.788-15.289 16.572-15.619 16.698-.793.305-1.097.142-3.132-1.677-10.295-9.198-25.468-11.887-36.636-6.491-.584.282-1.16.513-1.278.513s-.988.469-1.931 1.042-1.762 1.042-1.818 1.042-.105-1.143-.106-2.539c-.004-7.251-2.599-15.189-6.81-20.836-1.021-1.37-1.021-1.37-.425-1.604 7.012-2.754 11.592-3.934 17.263-4.449l3.906-.355c2.917-.262 12.147.093 15.235.587m-42.188 61.406c0 3.429 2.316 10.633 4.752 14.782 8.556 14.574 30.985 18.83 45.963 8.721 1.845-1.245 5.109-4.082 5.665-4.924.663-1.002.065-1.48 5.849 4.679 2.756 2.937 6.641 6.925 8.632 8.864l3.619 3.525-1.237 1.202c-15.272 14.834-38.163 19.796-61.639 13.362-18.927-5.188-32.792-19.67-37.52-39.19-.191-.787-.326-1.44-.301-1.453a185 185 0 0 1 3.17-.614c7.251-1.372 19.756-7.021 22.283-10.065.482-.582.764-.172.764 1.111m-44.645 10.954c3.191 14.617 11.946 27.619 25.635 38.073 2.623 2.004 4.79 3.903 4.632 4.061-.198.198-7.726-.404-9.971-.798-15.785-2.767-29.722-11.865-39.487-25.776-2.439-3.475-7.029-11.904-6.675-12.258.869-.869 15.32-3.367 21.553-3.726 2.077-.119 3.861-.234 3.966-.255s.261.285.347.679"/><path id="path1" fill="#b1b5b4" d="M242.74 148.586c-1.772.194-3.296.43-3.385.526-.089.095.365.103 1.01.017a79 79 0 0 1 3.385-.326c1.217-.093 2.975-.257 3.906-.363l1.693-.194-1.693-.006c-.931-.003-3.143.153-4.916.346m12.989-.142c1.647.129 3.983.354 5.19.501 1.208.146 2.239.223 2.292.17.262-.261-3.59-.715-6.831-.804l-3.646-.101zm9.927 1.152c.285.287 5.013 1.47 5.561 1.391.29-.042-.41-.328-1.556-.636-2.394-.645-4.24-.993-4.005-.755m-32.888.881c-.813.239-1.56.517-1.66.619-.184.184 3.561-.805 3.766-.995.221-.206-.671-.046-2.106.376m40.93 1.381c.358.17 1.588.712 2.734 1.205 4.02 1.729 5.56 2.552 8.158 4.359 6.153 4.28 9.682 7.53 9.133 8.41-.2.319-.49.532-.645.472s-.283.05-.283.243c0 .763-1.747 2.409-2.404 2.265-.433-.096-.567-.045-.438.165.103.166.295.236.427.154.131-.081.168.037.081.263-.119.313-.241.341-.509.119-.193-.16-.502-.231-.685-.157-.211.084-.165.142.121.155.636.028.574.541-.065.541-.287 0-.521-.117-.521-.26s-.205-.257-.456-.252c-.378.007-.349.097.174.533.606.504.612.541.159.968-.259.244-.404.321-.321.171.215-.394-.22-1.039-.45-.667-.098.159-.079.288.042.288.917 0-1.262 3.309-2.29 3.48-.884.146-1.515.778-1.258 1.259.182.339.158.473-.083.482-.184.006-.686.473-1.116 1.037-1.231 1.617-3.788 4.159-4.182 4.159-.209 0-.297.16-.211.384.173.452-.347 1.036-1.151 1.291-.859.273-1.215-.071-.682-.659.246-.272.325-.495.175-.495s-.346.189-.435.42c-.19.497-.936.034-.936-.582 0-.198-.221-.359-.492-.359-.297 0-.477-.169-.455-.428.022-.26-.178-.447-.505-.474-.298-.026-1.373-.709-2.388-1.52-2.216-1.768-3.831-2.736-5.925-3.554-2.204-.861-3.318-1.324-3.821-1.588-2.477-1.297-14.288-2.083-15.998-1.065-.391.233-.25.255.678.102 9.327-1.536 20.009 1.845 27.734 8.778 2.681 2.405 3.041 2.473 4.534.847a6563 6563 0 0 1 9.271-10.077c7.236-7.847 6.621-6.603 4.359-8.812-4.853-4.741-11.683-9.177-17.122-11.123-1.905-.681-2.888-.922-1.953-.478m-46.68.666c-1.721.767-1.743.814-.781 1.662l.716.632-.624-.708-.624-.709.754-.28c1.295-.481 2.856-1.298 2.447-1.281-.215.01-1.064.317-1.888.684m.242 3.224c.295.491.859 1.455 1.253 2.141.394.687.772 1.194.839 1.127.16-.16-1.926-3.726-2.322-3.971-.169-.104-.065.212.23.703m2.248 3.953c.076.179.549 1.263 1.051 2.408 1.65 3.763 2.948 10.483 2.723 14.098l-.1 1.598.597-.391c.664-.435.781-.646.244-.44-.28.108-.384-.526-.504-3.068-.214-4.549-1.582-10.089-3.345-13.554-.454-.893-.987-1.414-.666-.651m61.288 8.061c-.083.316-.09.635-.016.709.168.168.617-.522.622-.958.007-.548-.446-.362-.606.249m-47.437 5.277c-5.567 1.725-8.222 2.809-7.834 3.198.075.075.403-.038.73-.251.892-.58 5.573-2.28 7.358-2.672.978-.215 1.275-.347.788-.351-.43-.003-.898.031-1.042.076m-25.378 26.527-.9 1.085 1.095-1.029c.602-.567 1.095-1.065 1.095-1.107 0-.299-.525.128-1.29 1.051m-100.533 4.731c-.923.931-1.564 1.679-1.425 1.662.251-.03 3.44-3.355 3.218-3.355-.063 0-.87.762-1.793 1.693m91.601 2.362c-.393.214-.716.444-.716.511 0 .251.412.094 1.042-.399.774-.606.658-.645-.326-.112m9.31 3.116c-4.569 3.951-16.304 8.913-22.822 9.651-1.856.21-1.838.083-.599 4.192 1.691 5.605 2.592 7.844 4.569 11.355 8.467 15.036 21.878 24.067 40.084 26.99 21.113 3.39 39.014-1.594 53.508-14.896l1.302-1.195-5.211-5.293c-2.866-2.911-6.734-6.918-8.594-8.904l-3.382-3.611-1.803 1.742c-5.083 4.914-10.861 7.865-17.438 8.907-19.586 3.102-35.248-8.324-37.957-27.691-.348-2.484-.283-2.435-1.657-1.247m1.172.852c0 .834.716 4.681.937 5.04.086.138.213.624.284 1.081.243 1.572 2.644 6.942 4.016 8.981.414.616.753 1.196.753 1.29 0 .093.374.556.832 1.028l.833.859-.638.024c-.554.02-.529.054.197.264.458.133.904.355.99.495.088.143-.019.185-.248.098-.305-.118-.404.022-.404.573 0 .681.024.697.357.242.344-.471.366-.468.662.084.168.314.213.556.099.537-1.007-.169-1.436.093-1.911 1.164-.276.626-.68 1.285-.896 1.465-.217.179-.394.605-.394.946 0 1.219-2.024.884-2.163-.358-.062-.548-.083-.411-.048.314.069 1.453-.857 2.746-1.968 2.746-.479 0-.52.064-.248.391.186.224.754.39 1.334.39.724 0 1.01-.11 1.01-.39 0-.215.117-.391.26-.391s.261.469.261 1.042-.118 1.041-.261 1.041-.26.171-.26.379c0 .229-.373.449-.945.556-.608.114-.991.351-1.072.663-.07.267-.326.486-.569.486-.443 0-1.581 1.304-1.581 1.812a.27.27 0 0 1-.27.271c-.149 0-.759.469-1.355 1.042s-1.178 1.041-1.292 1.041-.208.452-.208 1.003c0 .575-.283 1.536-.664 2.253-.678 1.274-.537 2.249.208 1.446.268-.289.233-.318-.195-.167-.402.142-.451.113-.213-.127.486-.489 1.275-.085.845.433-.359.432.009.876.735.885.179.002.326.117.326.256 0 .138-.177.184-.394.101-.289-.111-.348-.032-.222.297.138.358-.03.317-.843-.207-.558-.361-.983-.792-.944-.959.04-.168-.048-.23-.195-.14-.346.214-3.415-2.481-3.208-2.816.087-.142.023-.172-.144-.069-.165.102-.3.042-.3-.133s-.077-.243-.171-.149c-.338.338-5.356-5.152-7.417-8.114-1.5-2.158-2.148-3.293-4.032-7.074-1.574-3.158-1.628-3.282-2.32-5.338a43 43 0 0 0-.652-1.823c-.36-.874-1.242-3.863-1.366-4.627-.093-.573-.005-.744.433-.837.303-.064 1.547-.305 2.764-.535 1.995-.377 5.005-1.173 6.38-1.687 2.535-.947 3.036-1.164 7.162-3.1 2.356-1.106 3.289-1.653 5.776-3.389 2.321-1.62 2.557-1.674 2.557-.589m-31.51 2.684c-2.871.328-3.072.488-.404.321 2.033-.127 4.541-.616 2.878-.561-.287.01-1.4.118-2.474.24m-6.445.681c.537.056 1.416.056 1.953 0s.097-.102-.977-.102-1.514.046-.976.102m-7.943.263c.895.051 2.36.051 3.255 0s.163-.092-1.628-.092-2.522.041-1.627.092m-7.333.361c-2.13.205-3.438.517-1.955.467 1.889-.064 7.197-.693 5.837-.691-.859.001-2.606.102-3.882.224m-4.516.668c.251.065.661.065.911 0 .251-.066.046-.119-.455-.119-.502 0-.707.053-.456.119m-5.794.862c-.516.165-.543.208-.131.208.287 0 .814-.093 1.172-.208.516-.165.543-.209.13-.209-.286 0-.813.094-1.171.209m-3.342.696c-.906.215-1.586.453-1.509.529.145.145 3.809-.685 3.809-.863 0-.161-.531-.084-2.3.334m-7.075 2.131c-1.661.607-4.279 1.873-3.125 1.51.75-.235 5.339-2.047 5.447-2.15.245-.234-.474-.036-2.322.64m-36.798.754c-.06.107-.19.546-.288.976a29 29 0 0 1-.329 1.302c-.082.287-.069.445.029.353.198-.186.935-2.827.789-2.827-.05 0-.14.088-.201.196m66.118.808c-.108.176-.419.249-.69.163-2.506-.795-24.463 2.782-24.463 3.986 0 .187.869 2.021 1.931 4.076 10.268 19.862 29.249 33.024 49.24 34.145 1.29.072 2.921.183 3.625.247l1.282.115-.891-.923c-.49-.508-1.945-1.702-3.234-2.653-13.036-9.616-22.189-22.493-25.76-36.237-.487-1.872-.925-3.104-1.04-2.919m.298 2.02c.187.7.446 1.742.576 2.315s.307 1.276.394 1.562c.12.391-.01.598-.518.83-.663.303-.674.292-.533-.521.079-.456.082-.696.005-.532-.154.327-1.928-.076-2.229-.507-.088-.127-.522-.043-.964.185s-1.072.419-1.401.424c-.33.005-.892.177-1.25.382l-.651.372.846.009c.812.009.847.051.847 1.051 0 .984-.044 1.042-.782 1.042-.547 0-.781-.127-.781-.423 0-.344-.071-.363-.388-.101-.213.177-.329.416-.258.531s-.224.562-.654.992c-.882.882-.955 1.084-.393 1.084.288 0 .389.293.382 1.107-.011 1.482-.683 2.278-1.921 2.278-.657 0-.935.116-.935.391 0 .282.29.391 1.042.391 1.355 0 1.445.682.123.93-.505.094-1.036.393-1.181.662-.144.27-.467.491-.717.491-.273 0-.584.338-.777.846-.243.636-.38.757-.55.486-.333-.529-1.65-.154-1.528.435.051.246.293.43.538.41.556-.045.556.02.003.573-.418.418-.407.432.193.242.556-.177.594-.151.301.202-.204.245-.237.467-.086.56.138.086.3.067.361-.041.06-.109.075-.055.033.12-.041.174.036.386.173.471a.59.59 0 0 1 .249.449c0 .162-.157.079-.35-.185-.244-.333-.408-.388-.537-.18-.102.165-.054.3.106.3s.223.109.14.244c-.083.134.056.36.308.501.253.142.383.333.291.426-.522.522-7.262-8.071-6.851-8.736.089-.143.006-.229-.184-.189-.195.04-.328-.133-.305-.402.021-.26-.022-.412-.097-.338q-.345.343-1.606-2.073a86 86 0 0 0-1.407-2.585c-.331-.572-.916-1.777-1.301-2.677l-.699-1.635.713-.274c.894-.344 7.325-1.769 8.654-1.919.358-.04 1.179-.192 1.823-.338 2.231-.505 8.071-.991 11.319-.942l2.074.031zm-37.962.402c-7.599 4.632-14.986 13.162-18.458 21.314-.336.788-.888 2.04-1.227 2.783s-.617 1.418-.617 1.5-.226.646-.503 1.254c-.687 1.508-1.325 3.501-1.294 4.042.014.246.186-.062.381-.685 4.173-13.283 11.763-23.632 21.989-29.983 2.508-1.558 2.521-1.567 2.181-1.567-.137 0-1.241.604-2.452 1.342m86.469 2.852c0 .167-.192.215-.456.115-.367-.14-.392-.109-.128.156.264.266.413.244.772-.115.278-.278.326-.444.128-.444-.174 0-.316.13-.316.288m-47.135 1.893c0 .198-.176.505-.391.683-.414.344-.508.089-.233-.629.195-.507.624-.544.624-.054m.811 2.145c.212.262-.142.303-1.137.134-.107-.018-.195-.259-.195-.535 0-.604.872-.853 1.004-.287.051.219.199.529.328.688m52.019 1.498c.821.847.831.882.286 1.024-.465.122-.54.057-.428-.371.079-.301-.011-.576-.215-.654-.293-.112-.784-.875-.563-.875.039 0 .453.394.92.876m-51.152.613c.095.246.092.368-.006.27s-.427-.048-.73.111c-.547.286-.547.284-.056-.27.597-.672.578-.669.792-.111m52.749 1.13c0 .347-.714.305-.937-.055-.115-.187-.071-.23.115-.115.165.102.301.055.301-.105 0-.161.117-.219.26-.131.143.089.261.272.261.406m1.381.972q-.312.198-.066.582c.185.287.298.305.449.072.134-.205.333-.229.586-.069.32.202.305.244-.087.247-.259.002-.414.097-.343.211.162.262-1.028.251-1.291-.012-.108-.107-.059-.195.108-.195.168 0 .304-.114.304-.252 0-.139-.205-.188-.455-.109-.39.122-.382.083.049-.269.278-.226.63-.41.782-.408.163.003.149.085-.036.202m3.12 1.993c.217-.083.482-.008.591.167.125.203.088.252-.102.134-.164-.101-.501-.071-.749.067-.565.317-1.898-.317-1.898-.902 0-.339.144-.316.882.14.486.3 1.06.477 1.276.394m1.618.666c-.088.143-.329.26-.536.26-.206 0-.375.114-.375.252 0 .139-.176.185-.391.103-.215-.083-.39-.262-.39-.398s.116-.176.258-.088.464.039.716-.107c.59-.344.923-.354.718-.022m-76.942 1.953c-.225 1.164-.223 1.227.032.973.146-.147.211-.484.142-.75-.068-.266-.147-.366-.174-.223m5.137 7.118c.773.764 1.353 1.442 1.287 1.507-.129.13-3.57-3.2-3.57-3.455 0-.219.653.338 2.283 1.948m-57.488 2.018c.003.275.123.675.269.89.193.285.217.18.089-.391-.214-.957-.363-1.165-.358-.499m110.153 4.794c0 .293-1.289.495-1.454.228-.077-.124.043-.226.267-.226.223 0 .406-.113.406-.252s.175-.185.39-.102c.215.082.391.24.391.352m-103.223 2.226c-.09.233-.153.618-.14.857s.125.089.252-.333c.245-.822.158-1.229-.112-.524m-.63 2.708c-.173.747-.302 1.613-.288 1.924s.192-.191.394-1.117.332-1.791.288-1.924-.222.37-.394 1.117m109.842-1.026c0 .144-.175.261-.39.261s-.391-.117-.391-.261c0-.143.176-.26.391-.26s.39.117.39.26m-113.521.537c-.011.223.162.633.385.911.398.497.401.497.165-.015a16 16 0 0 1-.384-.912c-.125-.337-.148-.335-.166.016m.805 2.341c.152.437.325.747.384.687.129-.129-.362-1.481-.538-1.481-.068 0 .001.357.154.794"/><path id="path2" fill="#4eb9d4" d="M174.74 136.873c-6.582.55-12.4 1.443-13.488 2.07l-.705.406.716-.107c.394-.059.716-.026.716.074s.174.181.387.181c.292 0 .316-.085.098-.348-.396-.477.453-.466 1.38.018.64.334.705.319.851-.197.147-.523.179-.53.507-.103.44.573.792.593.577.034-.128-.335-.029-.396.485-.298.356.068.585.024.51-.099-.076-.122.25-.23.724-.239l2.033-.038c2.309-.042 3.386.058 3.386.315 0 .143-.498.278-1.107.299l-1.107.039 1.172.183 1.172.182-1.349.039c-.768.022-1.507.198-1.717.408-.204.203-.769.419-1.256.479-.488.06-1.179.238-1.537.396l-.652.285.642.017c.611.016.62.038.186.472-.399.399-.487.407-.707.065-.223-.347-.279-.347-.507 0-.187.285-.258.298-.261.05-.002-.188-.123-.267-.268-.177s-.197.273-.115.406c.083.134-.179.361-.581.505a11 11 0 0 0-1.424.65c-.38.214-.824.389-.987.389s-.548.235-.855.521c-.308.286-.713.521-.901.521s-.341.112-.341.248c0 .294-1.727.812-2.168.65-.499-.182-1.159.358-.756.618.383.248-.068.728-1.373 1.463-.43.241-.576.377-.326.301.251-.076.456-.025.456.113 0 .327-.704.328-.905.002-.167-.27-1.279.113-1.962.675-.216.178-.685.382-1.042.453-1.982.394-2.341.52-2.341.826a.59.59 0 0 0 .326.486c.179.082.069.087-.245.009-.313-.077-.782-.025-1.041.115-.26.14-1.147.519-1.972.842-.824.324-1.677.859-1.894 1.19-.217.332-.564.603-.771.603s-.633.445-.947.989c-.611 1.063-1.682 1.781-1.876 1.259-.06-.162-.194.02-.296.406-.132.493-.411.75-.944.867-.416.091-.757.274-.757.406 0 .131-.199.239-.442.239-.319 0-.364.08-.16.283s.784.008 2.07-.695a98 98 0 0 1 2.907-1.528c.616-.304 1.035-.636.933-.738-.102-.103.068-.186.378-.186s1.824-.419 3.363-.931c15.845-5.265 29.163-5.982 37.516-2.018 10.85 5.149 15.939 13.476 14.656 23.979-1.239 10.143-9.442 17.797-22.669 21.151-2.686.682-4.268.882-7.888.999-1.284.042-1.497.12-1.497.547 0 .47-.791.735-2.344.784-.915.029-6.175.545-6.771.664-.358.072-1.499.155-2.535.186-1.036.03-1.739.147-1.562.26.177.112-.528.206-1.567.208-1.082.002-1.888.115-1.888.264 0 .144-.225.261-.501.261-.275 0-1.098.138-1.828.306-1.647.381-1.254.726.832.732 1.322.003 1.497.064 1.497.524q-.001.523.528.521c.377 0 .571.222.683.781.156.777.734 1.067.933.469.082-.243.148-.243.298 0 .106.172.069.313-.083.313-.151 0-.275.468-.275 1.041 0 .597.125 1.042.292 1.042.201 0 .19.124-.035.395-.27.325-.234.476.203.855.366.317.491.667.403 1.126-.077.407.034.828.286 1.08.227.227.413.649.413.937 0 .61.426.97.585.494.079-.238.225-.208.543.11.575.575.549.902-.086 1.068-.987.258-.591.848.586.873 1.674.035 3.314.492 3.911 1.089l.535.536-.691.173c-.381.096-.627.279-.548.407.083.134.359.119.648-.036.277-.148.889-.243 1.361-.212.472.032.995-.026 1.161-.129.47-.29 9.497-.977 12.698-.966 3.836.013 8.502-.165 8.985-.344.705-.26 5.135-.655 5.699-.508.322.084.551.021.551-.152 0-.185.243-.235.651-.132.358.09.651.063.651-.06s.263-.241.586-.261c1.829-.118 6.445-1.344 6.445-1.712 0-.143.172-.194.382-.113s.444.048.518-.073.551-.297 1.057-.392c.586-.11.856-.279.742-.465-.118-.19-.029-.233.253-.125.238.092.433.057.433-.078 0-.134.176-.176.391-.094.215.083.391.02.391-.138 0-.159.088-.275.195-.258.464.074.803-.062 1.361-.546.327-.283.684-.46.794-.392s.271-.064.359-.293c.091-.236.327-.352.546-.268.213.082.613-.094.89-.391.297-.319.633-.459.823-.341.206.127.254.09.135-.103-.165-.267-.003-.351.537-.277.095.013.278-.166.407-.396.129-.231.339-.355.466-.277.127.079.359-.094.514-.385.155-.29.431-.528.612-.528.18 0 .733-.407 1.227-.903s1.046-.907 1.225-.912c.179-.004.325-.125.325-.268s.131-.261.291-.261c.346 0 2.127-1.511 2.314-1.963.071-.174.621-.887 1.223-1.585.601-.698 1.362-1.6 1.692-2.003s.747-.893.926-1.088.325-.43.325-.521.307-.569.682-1.06.611-.894.523-.894.046-.239.295-.53.459-.613.465-.716.273-.685.591-1.293c.319-.609.489-1.109.379-1.111s-.081-.09.065-.196c.397-.285.935-1.627.764-1.903-.082-.133-.04-.241.093-.241.571 0 2.012-7.184 2.109-10.517.574-19.661-14.473-35.203-38.388-39.65-2.003-.372-11.542-.682-14.192-.46m2.267.725c.261.26-1.837.179-2.259-.087-.258-.163.021-.215.857-.159.682.046 1.313.156 1.402.246m-3.049.135c0 .364-.548.465-1.888.345-1.767-.157-1.53-.578.326-.578.859 0 1.562.105 1.562.233m-15.364 1.734c-.931.199-1.962.483-2.291.63s-.794.268-1.033.268c-.764 0-2.712.852-2.396 1.047.164.101.729-.024 1.256-.278a9.3 9.3 0 0 1 1.994-.65c.571-.103 1.172-.293 1.336-.423s.398-.212.52-.183c.406.097 2.179-.35 2.325-.585.078-.127.106-.221.062-.21s-.842.184-1.773.384m8.854-.2c0 .113.234.205.521.205.286 0 .521-.092.521-.205s-.235-.204-.521-.204-.521.092-.521.204m-18.62 3.32c-.654.315-.675.351-.13.22.358-.087.762-.261.898-.388.338-.316.153-.275-.768.168m-2.213.82c-.502.222-1.615.712-2.474 1.087-2.001.874-3.446 1.728-2.474 1.462.358-.098 1.354-.508 2.213-.912.86-.404 2.01-.887 2.556-1.072s1.117-.488 1.269-.671c.355-.428.044-.398-1.09.106m12.552 2.739c-.243.243-.382.243-.625 0s-.174-.313.312-.313.556.07.313.313m-23.431 2.689c-1.042.641-2.009 1.165-2.149 1.165a.26.26 0 0 0-.254.26c0 .375.219.325 1.002-.227.38-.268 1.298-.793 2.04-1.167 1.246-.627 1.967-1.219 1.466-1.203-.116.004-1.063.531-2.105 1.172m-7.934 5.338c-1.815 1.366-2.626 2.214-1.337 1.396.412-.261.983-.676 1.269-.923.287-.247.873-.745 1.302-1.107 1.33-1.12.593-.742-1.234.634m-3.594 3.03-1.161 1.214 1.237-1.008c.68-.555 1.237-1.101 1.237-1.214 0-.336-.101-.259-1.313 1.008m-4.582 4.384c-1.687 1.79-3.174 3.46-3.304 3.711-.266.516 2.326-2.128 4.556-4.646.812-.917 1.626-1.814 1.809-1.993s.26-.326.171-.326c-.09 0-1.544 1.465-3.232 3.254m41.901 1.881c.396.06.982.058 1.302-.003s-.003-.111-.72-.109c-.716.002-.978.052-.582.112m-14.261 2.678c-.329.141-.377.224-.131.224.215 0 .625-.101.912-.224.328-.141.376-.224.13-.224-.215 0-.625.101-.911.224m-32.412 1.027c-.311.437-.471.792-.354.788.286-.011 1.21-1.296 1.049-1.457-.07-.07-.383.231-.695.669m30.003-.238c-.872.351-.709.529.195.213.43-.149.781-.319.781-.377 0-.154-.317-.101-.976.164m37.593 1.204c.7.523 1.626 1.256 2.055 1.628l.781.676-.781-.869c-.728-.809-2.827-2.386-3.175-2.386-.085 0 .419.428 1.12.951m-45.666 1.783c-.752.342-1.367.678-1.367.748 0 .124 3.148-1.088 3.363-1.295.315-.302-.799.003-1.996.547m-24.411.906c-.633 1.003-.883 1.67-.436 1.164.41-.463 1.387-2.2 1.239-2.2-.082 0-.443.466-.803 1.036m-1.501 2.487c-.25.336-.455.787-.455 1.002 0 .216-.097.451-.214.524-.298.184-1.697 3.804-1.534 3.967.073.073.279-.314.458-.861.457-1.401 1.569-3.776 2.012-4.299.205-.242.331-.554.281-.692-.051-.138-.297.023-.548.359m17.696.304c-.974.507-1.718.974-1.654 1.038.131.131 3.815-1.678 3.815-1.874 0-.237-.389-.087-2.161.836m-8.711 4.559c-.609.312-1.107.667-1.107.789 0 .17 1.968-.804 2.582-1.279.379-.293-.547.015-1.475.49m-7.227.207c-.259.287-.354.521-.211.521.144 0 .473-.234.732-.521.259-.286.354-.52.211-.52s-.473.234-.732.52m-1.422 1.498c-.333.394-.782.921-.999 1.172-.511.591-.274.588.363-.006.982-.914 1.753-1.882 1.5-1.882-.143 0-.532.322-.864.716m5.668.008c-5.896 3.413-7.486 4.384-7.493 4.575-.004.121.431-.041.969-.361a132 132 0 0 1 2.018-1.176c1.374-.784 5.363-3.15 5.859-3.475.872-.573-.215-.221-1.353.437m-8.803.838c0 .43.097.781.215.781.119 0 .164-.351.101-.781s-.16-.781-.215-.781c-.056 0-.101.351-.101.781m0 1.78c0 .453.121.824.269.824s.231-.288.184-.641c-.132-.982-.453-1.112-.453-.183m56.836 10.9c.251.065.661.065.911 0 .251-.066.046-.119-.455-.119-.502 0-.707.053-.456.119m-13.737.365c-.716.085 1.393.155 4.687.156s5.697-.034 5.339-.08c-1.338-.168-8.772-.224-10.026-.076m-11.982.258c-1.291.115-2.638.336-2.995.492-.629.273-.625.278.14.162.792-.119 6.264-.614 8.457-.765.644-.044.175-.084-1.042-.09a59 59 0 0 0-4.56.201m-6.377 1.281c-1.678.55-1.592.633.247.238.723-.155 1.315-.389 1.315-.52 0-.132-.029-.228-.065-.214s-.71.237-1.497.496m-8.252 3.58c-.273.251-.368.373-.21.271.157-.101.573-.299.923-.439.403-.161.48-.261.211-.271-.235-.009-.651.189-.924.439m52.522 14.649c0 .326-.276.326-.781 0-.316-.204-.278-.254.195-.257.323-.002.586.113.586.257m-20.833 1.464c0 .346.071.364.391.098.214-.178.39-.368.39-.422s-.176-.099-.39-.099-.391.19-.391.423m1.45.592c-.912.358-.042.454 1.154.128 1.16-.316 1.163-.32.261-.322-.502-.002-1.138.086-1.415.194m-3.388.58c-.564.133-1.083.298-1.154.368-.156.157 1.77-.026 2.311-.219.215-.077.566-.199.781-.27.679-.227-.866-.13-1.938.121m-5.354 1.53-.651.209.701.026c.385.014.773-.091.862-.235.183-.296.013-.296-.912 0"/><path id="path3" fill="#3388b7" d="M173.763 136.905c.394.06 1.038.06 1.432 0 .394-.059.072-.108-.716-.108s-1.11.049-.716.108m.985.606c.422.266 2.52.347 2.259.087-.089-.09-.72-.2-1.402-.246-.836-.056-1.115-.004-.857.159m-3.915.223c0 .252 2.26.528 2.8.343.818-.281.183-.577-1.237-.577-.86 0-1.563.105-1.563.234m-3.195.498c-.54.045-.925.174-.854.288.07.114-.164.151-.52.083-.514-.098-.613-.037-.485.298.215.559-.137.539-.577-.034-.328-.427-.36-.42-.507.103-.146.516-.211.531-.851.197-.927-.484-1.776-.495-1.38-.018.218.263.194.348-.098.348-.213 0-.387-.082-.387-.181 0-.1-.322-.133-.716-.073l-.716.108.651-.395c.798-.485.747-.486-1.042-.015-.815.214-1.068.341-.588.295 1.055-.103.862.117-.439.501-.623.184-1.151.204-1.42.054-.296-.166-.406-.144-.358.072.041.181-.474.438-1.231.615-.716.167-1.671.488-2.122.713-.502.251-.956.323-1.172.186-.291-.185-.288-.224.017-.227.203-.002.307-.066.232-.141-.211-.211-1.005.164-.856.406.19.308-.758.557-1.314.344-.341-.132-.413-.09-.264.152.15.243.066.288-.317.166-.354-.112-.576-.027-.687.262-.105.274-.351.38-.682.293-.312-.082-.453-.03-.355.129.103.167-.051.196-.423.078-.365-.116-.526-.089-.426.072.201.325-.228.658-1.397 1.084-.501.183-1.614.659-2.474 1.058-1.75.812-3.126 1.258-2.474.801.215-.15.271-.275.123-.277-.147-.002-.652.347-1.122.777-.862.787-1.25 1-.956.524.091-.147-.013-.191-.243-.103-.222.085-.346.247-.276.36.07.114-.054.276-.275.361-.228.087-.335.044-.246-.1s-.017-.188-.245-.1c-.221.085-.337.26-.257.39s-.225.44-.679.689c-.453.249-1.469.833-2.258 1.297-.789.465-1.522.791-1.628.725-.107-.066-.417.061-.688.282-.272.221-.33.316-.129.212.235-.122.302-.086.187.099-.098.159-.339.228-.534.153-.196-.075-.803.309-1.348.855-.546.546-.901.818-.789.604.115-.219.042-.192-.167.063-.203.249-.447.395-.54.326-.093-.07-.112-.049-.041.045.159.213-.366.87-.696.87-.135 0-.158-.14-.052-.311.106-.172-.18-.047-.635.278-.75.533-1.198 1.073-.568.684.143-.088.26-.041.26.106s-.227.388-.504.536c-.668.358-.87.34-.638-.056.104-.179-.064-.102-.376.171-.311.273-.565.646-.565.828 0 .363-1.413 1.473-1.616 1.27-.069-.069-.7.565-1.403 1.409-.703.843-1.512 1.678-1.799 1.855s.007-.249.651-.945l1.172-1.267-1.259 1.171c-1.36 1.267-4.764 5.048-4.014 4.461.785-.616.496.092-.366.894-.452.421-.727.601-.611.399.146-.253.113-.305-.108-.169-.175.109-.253.367-.173.575s.045.316-.078.24c-.122-.075-.443.122-.713.438-.408.479-.414.516-.035.222.555-.429.616.036.065.493-.214.178-.39.236-.39.13 0-.107-.181-.044-.403.14-.221.183-.34.497-.263.696.076.2.029.295-.105.212-.135-.083-.387.116-.561.442-.288.541-.278.561.123.231.384-.317.419-.308.275.065-.09.235-.313.427-.495.427-.181 0-.491.205-.688.456-.331.422-.32.427.147.065.402-.311.362-.152-.198.781-.386.645-.816 1.144-.954 1.109-.139-.035-.436.317-.661.781-.363.749-.363.787-.006.339.325-.407.403-.426.403-.097 0 .225-.175.555-.39.733s-.391.479-.391.667-.116.415-.257.503c-.151.093-.195-.035-.106-.31.122-.379.1-.396-.116-.091-.147.208-.211.47-.141.583.069.112-.195 1.027-.587 2.032-.393 1.004-.794 1.698-.891 1.54-.306-.495-.494.881-.261 1.912.121.537.124.976.005.976-.118 0-.264-.322-.324-.716s-.114-.071-.122.716c-.009 1.073.04 1.269.196.782.225-.705.309-.563.385.651.096 1.53.318 1.721 1.319 1.13.486-.286 1.007-.444 1.158-.35.152.093.244.029.204-.142-.039-.172.092-.372.29-.444q.364-.133.156.203-.205.332.098.146c.167-.104.25-.277.183-.385-.194-.314 3.182-2.175 3.556-1.96.183.106.246.097.14-.021-.106-.117-.062-.37.097-.562.356-.429 1.115-.473.853-.049-.116.188-.072.23.119.112.167-.103.24-.292.162-.42-.079-.127.206-.412.633-.633.928-.479 1.158-.505.909-.101-.116.187-.072.23.114.115a.7.7 0 0 0 .301-.533c0-.191.185-.419.412-.506.59-.226.685-.197.475.143-.116.188-.072.23.119.112.167-.103.237-.297.154-.431s.158-.36.534-.503c.862-.328 1.157-.328.65.001-.215.138-.274.25-.13.248.447-.008 1.173-.68.972-.902-.105-.116-.055-.133.111-.038.379.217 1.173-.07.994-.359-.073-.119.004-.3.172-.404.19-.118.235-.076.119.112-.102.166-.116.301-.031.301.342 0 2.73-1.486 2.599-1.618-.078-.077.046-.212.274-.3.238-.091.348-.051.258.095-.089.144.018.187.246.1.221-.085.325-.279.231-.432-.109-.176-.008-.214.275-.106.256.098.382.066.294-.076-.199-.322 1.889-1.388 2.362-1.206.199.076.334.011.3-.145s.101-.343.3-.415c.22-.08.291-.017.182.16-.115.185-.033.235.224.136.222-.085.404-.26.404-.388s.089-.203.198-.167c.281.093 3.82-1.425 3.927-1.684.16-.387 1.642-1.027 2.032-.877.209.08.314.039.233-.093-.174-.282.788-.637 1.139-.42.133.082.397.001.588-.179s.464-.331.607-.336c.659-.02 3.217-1.014 3.1-1.205-.073-.117.054-.142.282-.054.227.087.639-.046.915-.295.276-.25.688-.383.915-.295.262.1.349.053.238-.127-.116-.187.001-.229.34-.121.591.188 1.431-.061 1.242-.368-.156-.252 1.102-.595 1.432-.391.13.08.545.068.924-.027.411-.103.569-.246.392-.355-.162-.1.259-.183.937-.183s1.275-.124 1.325-.276.339-.211.641-.132c.335.087.486.04.386-.121s.086-.216.481-.14c.353.067.643.021.643-.103s.538-.237 1.197-.251c.658-.015 1.274-.132 1.367-.261.094-.129 1.049-.276 2.123-.327s1.985-.177 2.024-.279c.089-.232 8.778-.134 9.162.104.155.095.543.139.863.098s.727.015.904.126c.178.11.793.22 1.367.243.575.022 1.045.136 1.045.251 0 .116.322.14.716.054.579-.126.641-.098.325.148-.324.252-.291.282.196.176.322-.071.586-.009.586.138 0 .146.234.205.521.13s.463-.043.392.072.052.279.274.364c.228.087.334.044.245-.1s.017-.188.245-.1c.222.085.339.258.261.384-.078.127.039.161.262.075.223-.085.404-.019.404.149s.107.237.238.156.277-.038.326.096c.048.133.258.28.467.327s.608.285.886.531.606.385.729.309c.294-.182 1.556.815 1.324 1.047-.098.098-.003.111.211.029.245-.094.775.263 1.425.961.789.847.845.956.238.461-.438-.357-.321-.19.26.371.582.561.891.922.687.803-.228-.134-.178.046.13.469.276.377.596.69.711.694.116.005.139.126.05.269-.088.143-.03.26.13.26s.227.105.147.233c-.079.129.033.301.25.384.302.116.357.41.237 1.265-.112.809-.081 1.007.115.725.203-.291.259-.113.226.717-.024.607-.121 1.103-.214 1.103-.094 0-.237.488-.316 1.083-.857 6.386-9.65 12.959-19.518 14.588-1.148.19-1.668.375-1.449.515.197.128-.424.193-1.483.156-1.002-.034-3.932-.009-6.51.056l-4.688.119 4.297.15c4.285.149 4.281.15-1.693.164-3.294.008-5.403-.064-4.687-.161.732-.099-.863-.172-3.646-.168-3.022.005-4.289.072-3.255.172l1.693.164-1.693.049c-1.566.046-5.21.372-7.682.687-.764.097-.903.069-.521-.108.429-.199.443-.245.08-.26-.242-.01-.509.094-.594.231s-.325.183-.534.103a.42.42 0 0 0-.535.258c-.09.234-.733.524-1.527.689-.754.156-1.992.52-2.75.808-.757.288-1.542.46-1.744.383s-.305-.042-.23.079c.182.295-1.116.868-1.471.649-.157-.097-.206-.053-.112.1.19.308-.53.668-.89.445-.129-.079-.181.008-.116.195.072.206-.388.585-1.172.966-.71.346-1.889 1.078-2.621 1.628s-1.454.923-1.605.829c-.152-.093-.204-.054-.116.087.087.142-.651 1.05-1.641 2.019-4.248 4.155-9.375 13.086-9.375 16.329 0 .271-.11.696-.244.945-.275.51-.999 3.819-1.182 5.4-.066.573-.26 1.745-.431 2.604-.415 2.083-.384 12.24.037 12.24.02 0 .072.182.116.405.095.482 1.632 2.069 2.003 2.069.352 0 1.003.675 1.003 1.042 0 .573.752 1.041 1.674 1.041.818 0 .93.078.93.651 0 .55.121.651.781.651s.781-.101.781-.651c0-.358.118-.651.261-.651s.26.469.26 1.042c0 .723.112 1.042.368 1.042.229 0 .441.418.561 1.106l.193 1.107.216-.781c.119-.43.152-1.016.073-1.302-.104-.38-.076-.425.103-.166.452.652.516-.275.073-1.048-.223-.388-.313-.798-.201-.91.231-.231.728.432.546.726-.065.105-.013.254.114.333.312.193 1.167-2.097.928-2.485-.115-.185-.078-.237.093-.132.166.103.418-.201.613-.741.182-.504.402-.916.489-.916s.378-.497.646-1.105c1.822-4.13 8.069-11.89 12.108-15.041 1.544-1.205 2.234-1.904 2.145-2.172-.041-.121.073-.171.251-.112.179.06 1.208-.433 2.287-1.094 2.761-1.694 7.297-3.846 9.905-4.702 5.549-1.819 8.198-2.463 12.79-3.108 3.506-.492 1.998-2.101-2.048-2.186-1.177-.025-1.573-.615-.586-.873.635-.166.661-.493.086-1.068-.318-.318-.464-.348-.543-.11-.159.476-.585.116-.585-.494 0-.288-.186-.71-.413-.937-.252-.252-.363-.673-.286-1.08.088-.459-.037-.809-.403-1.126-.437-.379-.473-.53-.203-.855.225-.271.236-.395.035-.395-.396 0-.377-2.012.02-2.144.244-.081.244-.147 0-.298-.172-.106-.312-.069-.312.083 0 .635-.729.212-.873-.506-.112-.559-.306-.781-.683-.781-.354 0-.528-.171-.528-.521 0-.46-.175-.521-1.497-.524-2.086-.006-2.479-.351-.832-.732.73-.168 1.553-.306 1.828-.306s.501-.108.501-.24.85-.3 1.888-.374c1.039-.073 3.002-.261 4.362-.416 2.861-.327 7.503-.794 8.073-.813 1.556-.05 2.344-.314 2.344-.784 0-.427.213-.505 1.497-.547 3.62-.117 5.202-.317 7.888-.999 6.103-1.548 16.182-6.677 15.45-7.863-.1-.161-.056-.21.1-.113.152.093.834-.445 1.514-1.197 8.331-9.205 7.653-23.144-1.513-31.124-10.134-8.821-24.315-9.707-45.054-2.815-1.539.512-3.053.931-3.363.931s-.48.083-.378.186c.102.102-.317.434-.933.738-.616.303-1.924.991-2.907 1.528-1.286.703-1.867.898-2.07.695-.204-.203-.159-.283.16-.283.243 0 .442-.108.442-.239 0-.132.341-.315.757-.406.533-.117.812-.374.944-.867.102-.386.236-.568.296-.406.194.522 1.265-.196 1.876-1.259.314-.544.74-.989.947-.989s.554-.271.771-.603 1.07-.866 1.894-1.19c.825-.323 1.712-.702 1.972-.842.259-.14.728-.192 1.041-.115.314.078.424.073.245-.009a.59.59 0 0 1-.326-.489c0-.3.505-.471 2.46-.837a2.4 2.4 0 0 0 .912-.429c.691-.571 1.804-.957 1.973-.685.201.326.905.325.905-.002 0-.138-.205-.189-.456-.113-.25.076-.104-.06.326-.301 1.305-.735 1.756-1.215 1.373-1.463-.403-.26.257-.8.756-.618.441.162 2.168-.356 2.168-.65 0-.136.153-.248.341-.248s.593-.235.901-.521c.307-.286.692-.521.855-.521s.607-.175.987-.389a11 11 0 0 1 1.424-.65c.402-.144.664-.371.581-.505-.082-.133-.031-.316.115-.406.145-.09.266-.011.268.177.003.248.074.235.261-.05.228-.347.284-.347.507 0 .22.342.308.334.707-.065.434-.434.425-.456-.186-.472l-.642-.017.652-.285c.358-.158 1.049-.336 1.537-.396.487-.06 1.052-.276 1.256-.479.21-.21.949-.386 1.717-.408l1.349-.039-1.172-.182-1.172-.183 1.107-.039c.609-.021 1.107-.156 1.107-.299 0-.144-.498-.277-1.107-.297-2.675-.088-3.246-.089-4.172-.013m.852 1.035c0 .113-.235.205-.521.205s-.521-.092-.521-.205.234-.204.521-.204c.286 0 .521.092.521.204m-13.021.837c-.537.172-.56.213-.13.231.286.012.696-.092.911-.231.456-.295.139-.295-.781 0m3.073 6.042c.243.243.382.243.625 0s.173-.313-.313-.313-.555.07-.312.313m57.343 3.984c.486.502.942.912 1.014.912s-.267-.41-.753-.912c-.486-.501-.942-.911-1.014-.911-.071 0 .268.41.753.911m-96.467 12.202c-.524.64-1.15 1.239-1.39 1.331-.435.167-.317.007 1.48-2.007 1.026-1.15.952-.596-.09.676m107.726 10.585c0 .501.053.706.119.455.065-.25.065-.66 0-.911-.066-.251-.119-.046-.119.456m-113.993 5.468c-.259.287-.588.521-.732.521-.143 0-.048-.234.211-.521.259-.286.589-.52.732-.52s.048.234-.211.52m-1.452 1.492c-.806.907-1.586 1.633-1.753 1.633-.072 0 .046-.205.263-.455.217-.251.666-.778.999-1.172s.721-.716.864-.716c.142 0-.026.319-.373.71m27.953 14.06c.396.06.982.058 1.302-.004.32-.061-.003-.11-.72-.109-.716.002-.978.053-.582.113m78.17 6.128-.765.846.847-.764c.465-.421.846-.802.846-.847 0-.201-.215-.024-.928.765m-41.52 13.477c.505.326.781.326.781 0 0-.144-.263-.259-.586-.257-.473.003-.511.053-.195.257m-19.271 1.14c0 .054-.176.244-.39.422-.32.266-.391.248-.391-.098 0-.233.176-.423.391-.423.214 0 .39.045.39.099m-48.757 26.675c.156.469-.382.371-.564-.103-.097-.253-.039-.372.151-.309a.74.74 0 0 1 .413.412m-.615 1.71c-.218.567-.066.719.419.419.298-.184.313-.304.066-.55-.246-.246-.352-.218-.485.131m4.833 1.771c-.005.216-.151.156-.391-.161-.5-.661-.494-1.076.008-.574.215.215.387.546.383.735m2.612 4.511c0 .358-.124.651-.276.651-.151 0-.203.117-.114.26.275.446.651.287.651-.275 0-.295.106-.471.236-.391.13.081.175-.088.1-.375-.193-.736-.597-.648-.597.13m-5.338.85c-.342.251-.455.843-.161.843.127 0 .291-.235.366-.521.153-.585.153-.585-.205-.322m5.466 1.368c-.09.145-.273.197-.406.115-.301-.186-.285.359.032 1.052.232.509.236.508.177-.025-.034-.3.1-.739.296-.976.197-.237.292-.431.211-.431s-.22.119-.31.265"/><path id="path4" fill="#929495" d="M248.916 148.146c.215.136-.588.29-2.083.399a100 100 0 0 0-3.477.309c-.575.072-1.922.173-2.995.224-1.072.052-2.008.117-2.08.146-.071.029-.423.034-.781.012-.537-.033-.583.011-.26.253.306.231.206.263-.469.146-.473-.081-.796-.046-.719.079s-.093.288-.378.362-.453.03-.373-.1.022-.236-.129-.236a.283.283 0 0 0-.276.288c0 .182-.266.227-.716.123-.562-.131-.632-.105-.326.122.312.231.249.266-.317.176-.432-.069-.646-.011-.548.147.103.166-.115.197-.593.085-.478-.111-.627-.09-.406.057.26.174.179.266-.318.361-.41.079-.604.027-.504-.135.103-.167.029-.18-.203-.035-.201.126-.54.254-.752.286-.212.033-.425.176-.472.319-.048.143-.275.188-.504.1-.299-.115-.356-.063-.203.186.161.259.074.309-.348.198-.363-.095-.501-.048-.388.134.11.179.011.218-.274.109-.266-.102-.382-.067-.287.086.208.337-1.109.834-1.708.644-.255-.081-.539-.027-.63.12-.102.166.013.204.304.1.258-.093.38-.071.271.049-.109.119.067.515.391.879.323.365.408.549.187.41-.22-.138-.056.052.366.425.502.443.693.794.555 1.016q-.203.333.08.162c.358-.222 1.187 1.297.933 1.708-.108.174-.064.221.107.116.158-.098.41.052.561.333.36.674.345.873-.052.668-.179-.092-.075.047.232.31 1.767 1.516 3.922 9.042 4.185 14.619.123 2.602.22 3.177.517 3.063.232-.089.305-.022.2.182-.092.178.088.03.399-.328s.492-.506.4-.329q-.163.32.236.168c.222-.085.345-.249.273-.364-.36-.583 5.889-3.035 6.964-2.732.432.121.491.097.221-.089-.428-.296 1.831-.735 2.297-.446.15.092.58-.034.956-.281.568-.372 1.402-.456 4.891-.494 3.959-.043 4.037-.035 1.341.142-2.773.181-2.74.185 1.041.125 2.323-.037 3.695.028 3.386.16-.352.15-.211.173.436.072.928-.145 4.214.453 5.111.93.243.129.655.302.914.383.26.081.401.264.312.406-.089.144.003.197.207.119 1.009-.387 7.758 3.12 7.332 3.809-.07.114.009.293.177.396.19.118.235.076.119-.112-.102-.165-.069-.301.074-.301.261 0 .671.499.678.825.002.096.111.271.241.391.138.126.159.08.05-.109-.103-.179-.081-.325.048-.325.289 0 1.078.845 1.014 1.085-.026.095.06.271.19.39.137.125.162.087.061-.091-.122-.212.047-.283.544-.226.476.055.709.226.685.504-.022.252.161.421.455.421.271 0 .492.161.492.359 0 .616.746 1.079.936.582.089-.231.284-.42.435-.42.15 0 .071.223-.175.495-.533.588-.177.932.682.659.804-.255 1.324-.839 1.151-1.291-.089-.23.004-.384.231-.384.209 0 .933-.586 1.609-1.302 1.141-1.209 1.93-1.731 1.477-.977-.133.222-.055.211.245-.032.477-.386.604-.685.18-.423-.527.326-.237-.364.586-1.391.466-.581.997-1.062 1.181-1.07.241-.01.265-.144.083-.483-.257-.481.374-1.113 1.258-1.259 1.028-.171 3.207-3.48 2.29-3.48-.121 0-.14-.129-.042-.288.23-.372.665.273.45.667-.083.15.062.073.321-.171.453-.427.447-.464-.159-.968-.523-.436-.552-.526-.174-.533.251-.005.456.108.456.252 0 .143.234.26.521.26.641 0 .689-.439.065-.602-.411-.107-.412-.122-.015-.149.242-.017.51.083.595.221.163.264.407.051 2.033-1.772.542-.607.917-1.216.833-1.351-.084-.136 0-.189.187-.117s.502-.131.702-.45c.549-.88-2.98-4.13-9.133-8.41-2.481-1.726-4.046-2.575-7.697-4.174-.919-.402-1.551-.826-1.457-.978.096-.155.037-.188-.14-.078-.375.232-2.175-.329-1.994-.621.071-.115-.104-.271-.389-.345-.285-.075-.452-.03-.372.1s.018.237-.138.237-.346-.163-.423-.362c-.081-.212-.351-.307-.65-.228-.281.073-1.182-.05-2.001-.273-.82-.224-2.009-.542-2.642-.706-.882-.229-1.065-.359-.781-.559.265-.186.125-.218-.489-.112-.529.091-.799.05-.702-.106.086-.141-.113-.249-.443-.243s-.952-.05-1.381-.127c-.726-.129-.735-.122-.131.107.542.205.476.226-.39.128-2.906-.331-6.61-.65-8.036-.69l-1.6-.046 1.823-.169c1.443-.133 1.008-.177-2.083-.21-2.223-.024-3.756.053-3.558.179m-4.32.211c.251.065.661.065.912 0 .25-.066.045-.119-.456-.119s-.706.053-.456.119m-2.864.26c.25.066.661.066.911 0 .251-.065.046-.119-.455-.119-.502 0-.707.054-.456.119m50.716 14.534c.486.501.942.912 1.014.912.071 0-.268-.411-.754-.912s-.942-.911-1.013-.911c-.072 0 .267.41.753.911m1.673 1.623c.41.494.431.649.135 1.041-.331.44-.324.44.151.004.489-.448.487-.467-.135-1.041l-.633-.585zm-2.719 2.739c-.005.436-.454 1.126-.622.958-.202-.202.132-1.283.396-1.283.127 0 .228.146.226.325m-58.24 7.878c.001 1.145.047 1.582.102.969.055-.612.054-1.55-.002-2.083s-.101-.032-.1 1.114m-105.623 21.691c-.824.385-1.497.784-1.497.887s.573-.102 1.274-.454 1.405-.64 1.563-.64.288-.117.288-.26c0-.322.15-.365-1.628.467m-5.581 3.189c-1.483 1.124-2.085 1.806-1.156 1.308.304-.162.552-.415.552-.562s.099-.205.221-.13c.121.075.549-.207.951-.627.402-.419.848-.69.992-.601.147.091.18.03.075-.14-.229-.369-.042-.455-1.635.752m-4.51 3.765c-.486.502-.788.912-.67.912s.054.205-.14.456c-.294.379-.256.373.222-.035.317-.27.521-.579.454-.687-.151-.245.51-.818.744-.643.094.07.114.051.043-.044-.07-.094.003-.328.162-.521.575-.692.05-.33-.815.562m-1.854 2.149a1.5 1.5 0 0 0 0 .391c.017.107-.082.195-.22.195s-.728.703-1.311 1.562c-.584.86-.94 1.563-.791 1.563s.27-.094.27-.209.586-.935 1.302-1.824c.716-.888 1.302-1.674 1.302-1.745 0-.209-.518-.146-.552.067m104.177 3.386c.125.898.143.916.229.228.051-.411-.01-.851-.136-.976-.131-.131-.17.188-.093.748m-1.427.722c-.9.735-1.373.839-.863.189.324-.413.314-.422-.095-.101-.249.195-.396.447-.327.56.114.184-1.262 1.167-3.375 2.408-1.772 1.041-4.674 2.292-5.015 2.161-.228-.088-.294-.028-.176.162q.186.302-.244.137c-.253-.097-.405-.045-.368.127.082.388-2.318 1.334-3.396 1.339-.51.002-.723.084-.528.204.249.154.235.227-.058.31-.211.06-1.204.351-2.206.647a51 51 0 0 1-4.037.956c-1.217.23-2.448.468-2.734.529-.426.09-.522.323-.527 1.278-.004.719.079 1.048.217.857.142-.196.177-.094.096.275-.07.323-.037.53.075.461.276-.171.892 2.092.668 2.454-.097.158-.047.256.113.216.159-.039.523.632.809 1.491 1.202 3.612 4.073 9.246 6.456 12.673 2.061 2.962 7.079 8.452 7.417 8.114.094-.094.171-.027.171.149 0 .175.135.235.3.133.167-.103.231-.073.144.069-.207.335 2.862 3.03 3.208 2.816.147-.09.235-.028.195.14-.039.167.386.598.944.959.813.524.981.565.843.207-.126-.329-.067-.408.222-.297.217.083.394.037.394-.101 0-.139-.147-.254-.326-.256-.726-.009-1.094-.453-.735-.885.43-.518-.359-.922-.845-.433-.238.24-.189.269.213.127.428-.151.463-.122.195.167-.745.803-.886-.172-.208-1.446.381-.717.664-1.678.664-2.253 0-.551.094-1.003.208-1.003s.696-.468 1.292-1.041 1.206-1.042 1.355-1.042c.148 0 .27-.122.27-.271 0-.508 1.138-1.812 1.581-1.812.243 0 .499-.219.569-.486.081-.312.464-.549 1.072-.663.572-.107.945-.327.945-.556 0-.208.117-.379.26-.379s.261-.468.261-1.041-.118-1.042-.261-1.042-.26.176-.26.391c0 .28-.286.39-1.01.39-.58 0-1.148-.166-1.334-.39-.272-.327-.231-.391.248-.391 1.111 0 2.037-1.293 1.968-2.746-.035-.725-.014-.862.048-.314.139 1.242 2.163 1.577 2.163.358 0-.341.177-.767.394-.946.216-.18.62-.839.896-1.465.475-1.071.904-1.333 1.911-1.164.114.019.069-.223-.099-.537-.296-.552-.318-.555-.662-.084-.333.455-.357.439-.357-.242 0-.551.099-.691.404-.573.229.087.336.045.248-.098-.086-.14-.532-.362-.99-.495-.726-.21-.751-.244-.197-.264l.638-.024-.833-.859c-.458-.472-.832-.935-.832-1.028 0-.094-.339-.674-.753-1.29-1.372-2.039-3.773-7.409-4.016-8.981-.071-.457-.198-.943-.284-1.081-.221-.359-.937-4.206-.937-5.04 0-.977-.298-1.061-1.187-.334m-105.713.123c-.088.142-.208.507-.267.811-.058.303-.315.71-.571.904s-.348.358-.204.365c.143.006.101.113-.093.236-.21.133-.25.288-.099.381.14.087.628-.543 1.085-1.4.662-1.242.787-2.33.149-1.297m-1.61 3.191c.088.25.067.456-.048.456-.345 0-2.224 5.255-2.184 6.108.033.679.003.718-.207.272l-.244-.521.066.521c.083.651.57.443.61-.261.016-.286.147-.814.292-1.172.144-.358.577-1.525.962-2.595.384-1.069.828-2.099.986-2.289.211-.255.197-.429-.053-.66-.272-.252-.308-.224-.18.141m68.604.64c.324.062.793.06 1.042-.006.249-.065-.016-.116-.589-.113s-.777.056-.453.119m-9.375 6.51c.324.062.793.06 1.042-.005s-.016-.116-.589-.113c-.573.002-.777.056-.453.118m-.589.522c-2.339.135-7.106.665-8.203.914-.644.146-1.465.298-1.823.338-1.329.15-7.76 1.575-8.654 1.919l-.713.274.699 1.635c.385.9.97 2.105 1.301 2.677s.964 1.736 1.407 2.585q1.261 2.416 1.606 2.073c.075-.074.118.078.097.338-.023.269.11.442.305.402.19-.04.273.046.184.189-.186.3 1.933 3.531 3.511 5.354.588.679 1.01 1.388.939 1.574s.068.493.31.683c.396.309.404.298.083-.112-.617-.787-.056-.496.913.473.511.511 1.004.854 1.096.762s-.039-.282-.292-.424c-.252-.141-.391-.367-.308-.501.083-.135.02-.244-.14-.244s-.208-.135-.106-.3c.129-.208.293-.153.537.18.193.264.35.347.35.185a.59.59 0 0 0-.249-.449c-.137-.085-.214-.297-.173-.471.042-.175.027-.229-.033-.12-.061.108-.223.127-.361.041-.151-.093-.118-.315.086-.56.293-.353.255-.379-.301-.202-.6.19-.611.176-.193-.242.553-.553.553-.618-.003-.573a.525.525 0 0 1-.538-.41c-.122-.589 1.195-.964 1.528-.435.17.271.307.15.55-.486.193-.508.504-.846.777-.846.25 0 .573-.221.717-.491.145-.269.676-.568 1.181-.662 1.322-.248 1.232-.93-.123-.93-.752 0-1.042-.109-1.042-.391 0-.275.278-.391.935-.391 1.238 0 1.91-.796 1.921-2.278.007-.814-.094-1.107-.382-1.107-.562 0-.489-.202.393-1.084.43-.43.725-.877.654-.992s.045-.354.258-.531c.317-.262.388-.243.388.101 0 .296.234.423.781.423.738 0 .782-.058.782-1.042 0-1-.035-1.042-.847-1.051l-.846-.009.651-.372c.358-.205.92-.377 1.25-.382s.96-.196 1.401-.424.876-.312.964-.185c.301.431 2.075.834 2.229.507.077-.164.074.076-.005.532-.141.813-.13.824.533.521.508-.232.638-.439.518-.83a29 29 0 0 1-.394-1.562 77 77 0 0 0-.576-2.315l-.34-1.273-2.074-.031c-1.141-.017-2.543-.005-3.116.028m-61.453.531c.098.357.045.586-.135.586-.183 0-.229.211-.12.553.101.317.05.631-.119.735-.474.294-1.223 6.004-.787 6.004.185 0 .345-.855.658-3.516a25 25 0 0 1 .515-2.703c.255-.982.283-1.526.095-1.822-.215-.341-.236-.309-.107.163m115.678 4.155c-.359.359-.508.381-.772.115-.264-.265-.239-.296.128-.156.264.1.456.052.456-.115 0-.158.142-.288.316-.288.198 0 .15.166-.128.444m-47.947 1.791c-.275.718-.181.973.233.629.426-.353.531-1.041.158-1.041-.128 0-.304.185-.391.412m.558 1.097c-.437.088-.662 1.06-.26 1.128.995.169 1.349.128 1.137-.134a2 2 0 0 1-.328-.688c-.051-.219-.297-.357-.549-.306m-69.893 2.262c.104 1.318.427 1.453.427.178 0-.596-.112-1.085-.249-1.085s-.217.409-.178.907m121.94-.276c.078.204.3.431.492.505.204.078.294.353.215.654-.112.428-.037.493.428.371.545-.142.535-.177-.286-1.024-.947-.977-1.055-1.041-.849-.506m-51.095 1.23c-.491.554-.491.556.056.27.303-.159.632-.209.73-.111s.101-.024.006-.27c-.214-.558-.195-.561-.792.111m-51.059.027c-.344.55-.358 1.091-.02.753.276-.277.511-1.078.315-1.078-.05 0-.183.146-.295.325m-20.068 2.741c.054 1.615.206 3.045.338 3.178.322.323.141-5.208-.187-5.723-.163-.257-.215.619-.151 2.545m124.147-2.024c0 .16-.136.207-.301.105-.186-.115-.23-.072-.115.115.223.36.937.402.937.055 0-.134-.118-.317-.261-.406-.143-.088-.26-.03-.26.131m1.156 1.453c-.431.352-.439.391-.049.269.25-.079.455-.03.455.109 0 .138-.136.252-.304.252s-.216.088-.108.195c.263.263 1.453.274 1.291.012-.071-.114.084-.209.343-.211.392-.003.407-.045.087-.247-.253-.16-.452-.136-.586.069-.151.233-.264.215-.449-.072q-.246-.384.066-.582c.185-.117.199-.199.036-.202-.152-.002-.504.182-.782.408m1.708 1.253c0 .585 1.333 1.219 1.898.902.248-.138.585-.168.749-.067.19.118.227.069.102-.134-.109-.175-.374-.25-.591-.167s-.79-.094-1.276-.394c-.738-.456-.882-.479-.882-.14m51.953 1.2c.706.716 1.342 1.302 1.413 1.302.072 0-.447-.586-1.152-1.302-.706-.716-1.341-1.302-1.413-1.302-.071 0 .447.586 1.152 1.302m-48.895.022c-.252.146-.574.195-.716.107s-.258-.048-.258.088.175.315.39.398c.215.082.391.036.391-.103s.169-.252.375-.252c.207 0 .448-.117.536-.26.205-.332-.128-.322-.718.022m-129.768 2.431c-.213.848-.061 1.514.38 1.661.282.094.317-.045.159-.63-.112-.412-.194-.955-.183-1.206.029-.658-.172-.559-.356.175m53.576.473c-.255.254-.257.191-.032-.973.027-.143.106-.043.174.223.069.266.004.603-.142.75m-39.466.32c-.231.353-.417.734-.413.846.005.113.129-.003.277-.257.148-.253.353-.408.457-.344s.189-.109.189-.385c0-.633-.004-.632-.51.14m-13.023 1.289c.087.227.273.413.412.413.343 0 .128-.592-.261-.722-.19-.063-.248.056-.151.309m-.776.344c-.255.873.541 5.798.937 5.798.129 0 .21.322.179.716-.113 1.451 0 2.016.335 1.68.375-.375 1.25-.417 1.25-.061 0 .139-.187.181-.416.093-.442-.17-.878.306-.878.957 0 .347.031.347.274 0 .216-.309.241-.274.116.171-.181.647.348 3.007.635 2.83.105-.065.201.229.213.652.03 1.07.619 2.602.926 2.412.15-.092.194.073.107.405-.081.309-.053.504.062.433s.278.052.363.274c.089.23.045.334-.102.243-.142-.087-.258-.047-.258.089s.189.321.42.409c.267.103.371.351.285.68s-.033.454.145.344c.181-.112.217-.009.103.289-.125.325-.074.423.171.329q.347-.132.303.427c-.068.843.697 2.335.988 1.929q.235-.329.106.259c-.071.322-.009.586.136.586.148 0 .219-.394.16-.894-.06-.52-.001-.829.143-.74.148.091.184-.23.091-.806q-.154-.956.117-.789c.177.109.21-.03.094-.396-.264-.833.124-2.928.414-2.235.139.333.16.154.058-.493-.117-.743-.078-.964.147-.825.218.135.259.002.142-.464-.09-.36-.03-.868.133-1.129.258-.413.276-.39.141.177-.132.555-.113.583.134.189.219-.349.19-.807-.117-1.863-.475-1.632-.492-1.794-.165-1.592.133.082.327.013.43-.155.132-.214.292-.161.539.176.416.569.427.511.111-.591-.238-.83.092-1.1.561-.461.121.164.193.145.196-.05.002-.17-.103-.376-.234-.457s-.317-.615-.414-1.187c-.108-.639-.317-1.04-.543-1.04-.256 0-.368-.319-.368-1.042 0-.573-.117-1.042-.26-1.042s-.261.293-.261.651c0 .55-.121.651-.781.651s-.781-.101-.781-.651c0-.573-.112-.651-.93-.651-.922 0-1.674-.468-1.674-1.041 0-.37-.652-1.042-1.011-1.042-.385 0-2.127-1.852-1.974-2.099.071-.115.018-.277-.117-.361-.136-.083-.307.055-.381.308m1.144 1.888c-.485.3-.637.148-.419-.419.133-.349.239-.377.485-.131.247.246.232.366-.066.55m10.706.138c-.182.503-.439.849-.57.768-.132-.082-.173.024-.092.236.081.211.01.639-.157.953-.236.44-.232.636.018.866.242.224.28.223.153-.004-.211-.377.073-1.173.357-.998.114.071.146-.111.069-.404-.092-.351-.025-.506.197-.456.219.05.361-.264.409-.9.091-1.209.034-1.218-.384-.061m173.924.517c.486.501.942.911 1.014.911s-.267-.41-.753-.911-.942-.912-1.014-.912c-.071 0 .267.41.753.912m-180.989-.199c0 .391.764 1.276.773.896.004-.189-.168-.52-.383-.735-.214-.214-.39-.287-.39-.161m51.302-.1c0 .255 3.441 3.585 3.57 3.455.066-.065-.514-.743-1.287-1.507-1.63-1.61-2.283-2.167-2.283-1.948m-46.611 2.317c.007.571.481 1.106 1.006 1.135q.511.03.364-.347c-.118-.308-.184-.314-.364-.029-.121.191-.237.26-.257.152a9 9 0 0 0-.102-.455 5 5 0 0 1-.097-.521c-.048-.38-.554-.32-.55.065m.1 2.409c0 .544.046.854.101.688.055-.165.196-.241.314-.169.118.073.148-.12.067-.429-.1-.383-.052-.503.151-.378.197.122.243.039.135-.241-.117-.307-.217-.339-.356-.115-.147.239-.218.235-.302-.017-.06-.181-.11.116-.11.661m-.809.651c.075.287.03.456-.1.375-.13-.08-.236.096-.236.391 0 .562-.376.721-.651.275-.089-.143-.037-.26.114-.26.152 0 .276-.293.276-.651 0-.778.404-.866.597-.13m-5.73 1.302c-.146.558-.64.74-.531.195.052-.262.432-.693.627-.712.022-.002-.021.23-.096.517m5.202 1.361c-.145.182-.181.563-.078.845.162.444.207.409.335-.26.174-.902.111-1.045-.257-.585m102.015.47c0 .139-.183.252-.406.252s-.344.102-.267.226c.165.267 1.454.065 1.454-.228 0-.112-.176-.27-.391-.352-.215-.083-.39-.037-.39.102m5.989 4.158c0 .144.176.261.391.261s.39-.117.39-.261c0-.143-.175-.26-.39-.26s-.391.117-.391.26m23.503 6.43c.25.065.66.065.911 0 .251-.066.046-.119-.456-.119-.501 0-.706.053-.455.119m8.854 0c.251.065.661.065.911 0 .251-.066.046-.119-.455-.119-.502 0-.707.053-.456.119"/></g></svg>